<?xml version="1.0" encoding="UTF-8" standalone="no"?>
<!DOCTYPE svg PUBLIC "-//W3C//DTD SVG 1.1//EN" "http://www.w3.org/Graphics/SVG/1.1/DTD/svg11.dtd">
<svg xmlns="http://www.w3.org/2000/svg" version="1.1" viewBox="0.00 0.00 1773.00 1773.00">
<path fill="#fcc751" d="
  M 16.87 0.00
  L 18.54 0.34
  L 18.40 0.88
  A 1.38 1.35 76.2 0 1 17.99 1.57
  L 14.61 4.54
  A 0.05 0.03 80.8 0 0 14.59 4.58
  L 14.59 4.98
  A 0.56 0.55 66.7 0 1 14.44 5.36
  L 0.36 21.27
  L 0.00 18.99
  L 0.00 0.00
  L 16.87 0.00
  Z"
/>
<path fill="#fffffe" d="
  M 18.97 0.00
  Q 18.85 0.23 18.54 0.34
  L 16.87 0.00
  L 18.97 0.00
  Z"
/>
<path fill="#fffffe" d="
  M 39.50 0.00
  Q 37.99 0.53 36.54 0.28
  Q 36.29 0.18 36.13 0.00
  L 39.50 0.00
  Z"
/>
<path fill="#82cbee" d="
  M 399.00 0.00
  Q 399.70 0.39 400.54 0.30
  L 401.10 316.71
  A 0.50 0.49 -90.0 0 1 400.61 317.21
  L 0.34 316.99
  Q 0.24 315.79 0.00 316.00
  L 0.00 224.70
  Q 12.63 224.62 25.27 224.65
  C 30.55 224.66 35.24 223.94 40.84 223.93
  Q 62.40 223.87 64.25 223.73
  C 68.04 223.44 72.46 223.00 75.51 222.99
  C 117.32 222.92 152.36 223.32 185.75 222.11
  Q 188.60 222.01 205.25 221.57
  Q 222.56 221.11 247.49 218.68
  C 255.52 217.90 281.14 215.32 276.19 201.06
  C 272.52 190.50 263.75 183.64 254.10 179.39
  C 240.00 173.17 225.57 170.19 209.93 168.38
  Q 187.74 165.80 165.46 168.92
  A 0.57 0.56 88.4 0 1 164.82 168.31
  C 166.45 149.32 157.47 129.66 141.88 118.39
  C 117.66 100.90 86.25 100.96 62.48 119.22
  A 1.02 1.02 0.0 0 1 60.87 118.68
  C 58.52 109.94 56.00 102.85 51.49 95.19
  Q 33.81 65.16 0.00 54.14
  L 0.00 43.88
  Q 0.46 43.06 0.34 41.97
  Q 8.35 32.04 16.53 22.28
  Q 26.11 10.86 36.54 0.28
  Q 37.99 0.53 39.50 0.00
  L 399.00 0.00
  Z"
/>
<path fill="#fffffe" d="
  M 400.73 0.00
  Q 400.67 0.18 400.54 0.30
  Q 399.70 0.39 399.00 0.00
  L 400.73 0.00
  Z"
/>
<path fill="#fce3ba" d="
  M 415.24 0.00
  Q 414.49 0.39 413.57 0.46
  L 413.16 0.00
  L 415.24 0.00
  Z"
/>
<path fill="#fcc751" d="
  M 449.62 0.00
  Q 450.15 0.41 450.96 0.37
  L 451.28 293.66
  A 2.83 2.82 67.9 0 1 450.43 295.68
  C 437.25 308.68 422.63 321.73 410.44 334.02
  Q 391.09 353.51 373.48 374.38
  A 4.01 4.00 -69.8 0 1 370.43 375.79
  L 0.30 375.55
  Q 0.51 374.42 0.00 374.24
  L 0.00 331.76
  Q 0.29 331.18 0.35 330.48
  Q 0.75 329.76 1.25 329.76
  Q 271.14 329.92 408.02 329.87
  Q 412.77 329.87 412.82 325.08
  C 413.57 248.25 413.37 170.05 413.39 1.57
  Q 413.39 1.01 413.57 0.46
  Q 414.49 0.39 415.24 0.00
  L 449.62 0.00
  Z"
/>
<path fill="#fce3ba" d="
  M 451.23 0.00
  Q 451.19 0.24 450.96 0.37
  Q 450.15 0.41 449.62 0.00
  L 451.23 0.00
  Z"
/>
<path fill="#fce3ba" d="
  M 465.88 0.00
  L 463.92 0.46
  L 463.62 0.00
  L 465.88 0.00
  Z"
/>
<path fill="#fcc751" d="
  M 510.37 0.00
  L 510.62 249.01
  A 1.11 1.07 72.9 0 1 510.17 249.90
  Q 503.42 254.79 482.57 270.20
  C 475.81 275.19 470.54 279.76 464.44 284.70
  A 0.36 0.35 -19.7 0 1 463.86 284.43
  L 463.92 0.46
  L 465.88 0.00
  L 510.37 0.00
  Z"
/>
<path fill="#fffffe" d="
  M 524.73 0.00
  Q 524.25 0.28 523.45 0.34
  Q 523.26 0.23 523.13 0.00
  L 524.73 0.00
  Z"
/>
<path fill="#82cbee" d="
  M 679.74 0.00
  Q 676.12 9.37 676.56 18.72
  A 0.48 0.47 -2.9 0 1 676.10 19.22
  C 656.28 19.86 636.53 25.58 620.11 36.85
  C 614.29 40.85 606.56 50.21 609.24 57.77
  C 610.76 62.07 614.80 65.27 618.83 66.45
  Q 625.50 68.41 633.48 69.57
  Q 646.69 71.47 667.44 72.26
  C 677.42 72.64 687.39 72.87 697.80 72.80
  C 700.79 72.79 704.17 73.35 707.50 73.37
  Q 734.28 73.50 761.36 73.87
  C 763.05 86.09 764.99 97.89 768.10 109.91
  Q 775.35 138.01 791.67 162.08
  A 0.22 0.22 0.0 0 1 791.47 162.42
  Q 775.87 160.80 761.00 160.67
  C 751.46 160.58 744.28 161.31 733.01 162.46
  Q 690.73 166.81 651.31 179.83
  C 643.53 182.40 631.09 186.62 622.46 190.10
  C 587.18 204.32 554.44 221.38 523.34 241.45
  A 0.36 0.36 0.0 0 1 522.79 241.15
  L 523.45 0.34
  Q 524.25 0.28 524.73 0.00
  L 679.74 0.00
  Z"
/>
<path fill="#fffffe" d="
  M 762.56 0.00
  Q 761.05 3.91 760.70 7.00
  Q 757.82 32.99 759.93 59.06
  Q 760.53 66.58 761.36 73.87
  Q 734.28 73.50 707.50 73.37
  C 704.17 73.35 700.79 72.79 697.80 72.80
  C 687.39 72.87 677.42 72.64 667.44 72.26
  Q 646.69 71.47 633.48 69.57
  Q 625.50 68.41 618.83 66.45
  C 614.80 65.27 610.76 62.07 609.24 57.77
  C 606.56 50.21 614.29 40.85 620.11 36.85
  C 636.53 25.58 656.28 19.86 676.10 19.22
  A 0.48 0.47 -2.9 0 0 676.56 18.72
  Q 676.12 9.37 679.74 0.00
  L 762.56 0.00
  Z"
/>
<path fill="#fffffe" d="
  M 925.62 0.00
  Q 956.67 32.16 981.74 67.95
  Q 980.86 68.43 979.39 68.03
  Q 977.85 67.60 977.05 67.62
  C 957.34 68.15 947.08 67.96 931.43 68.80
  Q 926.44 69.07 914.74 69.06
  C 911.40 69.06 908.25 69.76 904.56 69.76
  Q 889.81 69.76 874.27 71.02
  Q 851.33 44.48 823.01 22.24
  Q 808.64 10.96 791.73 0.00
  L 925.62 0.00
  Z"
/>
<path fill="#fffffe" d="
  M 946.14 0.00
  L 943.61 0.35
  Q 944.03 0.42 943.22 0.00
  L 946.14 0.00
  Z"
/>
<path fill="#fcc751" d="
  M 1009.87 0.00
  Q 1010.59 0.52 1011.52 0.39
  Q 1013.77 3.04 1015.89 5.87
  Q 1033.07 28.79 1044.01 45.23
  Q 1055.76 62.88 1060.51 71.72
  Q 1062.41 75.26 1063.33 80.58
  Q 1065.48 93.03 1066.89 101.51
  Q 1070.71 124.47 1074.47 146.76
  Q 1076.21 157.09 1078.81 167.07
  A 0.07 0.06 89.3 0 1 1078.74 167.15
  L 1049.51 161.33
  A 1.35 1.35 0.0 0 1 1048.54 160.57
  Q 1043.80 150.36 1034.15 131.08
  Q 1000.87 64.59 950.80 8.18
  Q 947.36 4.30 943.61 0.35
  L 946.14 0.00
  L 1009.87 0.00
  Z"
/>
<path fill="#fce3ba" d="
  M 1011.75 0.00
  Q 1011.65 0.24 1011.52 0.39
  Q 1010.59 0.52 1009.87 0.00
  L 1011.75 0.00
  Z"
/>
<path fill="#fffffe" d="
  M 1033.14 0.00
  L 1028.67 0.62
  Q 1028.44 0.32 1027.87 0.00
  L 1033.14 0.00
  Z"
/>
<path fill="#fce3ba" d="
  M 1053.04 0.00
  L 1057.89 40.47
  A 0.36 0.36 0.0 0 1 1057.23 40.71
  Q 1051.48 32.03 1045.74 23.96
  Q 1037.38 12.19 1028.67 0.62
  L 1033.14 0.00
  L 1053.04 0.00
  Z"
/>
<path fill="#fffffe" d="
  M 1067.63 0.00
  Q 1067.26 0.21 1066.72 0.30
  Q 1066.31 0.23 1066.13 0.00
  L 1067.63 0.00
  Z"
/>
<path fill="#f48f3d" d="
  M 1092.37 0.00
  Q 1092.94 0.24 1094.03 0.27
  Q 1094.58 7.81 1094.79 15.35
  C 1095.03 24.00 1099.28 22.58 1105.31 26.47
  Q 1113.08 31.50 1116.47 36.07
  Q 1127.40 50.82 1120.09 67.81
  C 1116.26 76.70 1108.58 80.53 1099.79 82.76
  C 1094.98 83.97 1094.14 87.24 1093.87 92.13
  C 1093.31 102.49 1092.31 111.09 1085.09 119.06
  Q 1084.76 119.42 1084.49 119.49
  A 0.59 0.58 76.6 0 1 1083.79 119.05
  Q 1082.32 112.71 1080.57 102.72
  Q 1071.96 53.84 1066.61 2.04
  Q 1066.61 2.00 1066.47 1.47
  Q 1066.33 0.92 1066.72 0.30
  Q 1067.26 0.21 1067.63 0.00
  L 1092.37 0.00
  Z"
/>
<path fill="#fffffe" d="
  M 1093.90 0.00
  Q 1093.96 0.13 1094.03 0.27
  Q 1092.94 0.24 1092.37 0.00
  L 1093.90 0.00
  Z"
/>
<path fill="#fffffe" d="
  M 1106.38 0.00
  Q 1106.26 0.17 1105.98 0.29
  Q 1105.68 0.17 1105.49 0.00
  L 1106.38 0.00
  Z"
/>
<path fill="#34ac89" d="
  M 1162.50 0.00
  L 1163.60 0.26
  Q 1165.47 19.28 1167.43 38.28
  Q 1171.05 73.45 1173.97 89.32
  Q 1178.12 111.93 1181.20 134.45
  A 0.76 0.75 -3.6 0 1 1180.44 135.30
  C 1165.56 135.00 1154.61 142.73 1147.95 155.68
  Q 1140.91 169.37 1141.39 184.68
  A 0.56 0.56 0.0 0 1 1140.63 185.22
  Q 1117.58 176.25 1094.02 170.61
  A 1.85 1.84 1.7 0 1 1092.63 169.14
  L 1086.57 134.71
  A 2.98 2.96 68.4 0 1 1087.86 131.71
  C 1100.30 123.51 1105.63 109.79 1105.91 95.08
  A 1.47 1.47 0.0 0 1 1106.79 93.75
  C 1110.24 92.21 1114.62 90.76 1117.38 88.92
  C 1143.10 71.78 1140.14 34.52 1115.13 18.33
  C 1112.61 16.70 1109.30 15.34 1106.86 13.97
  A 1.38 1.38 0.0 0 1 1106.15 12.78
  L 1105.98 0.29
  Q 1106.26 0.17 1106.38 0.00
  L 1162.50 0.00
  Z"
/>
<path fill="#fffffe" d="
  M 1163.38 0.00
  Q 1163.49 0.13 1163.60 0.26
  L 1162.50 0.00
  L 1163.38 0.00
  Z"
/>
<path fill="#fffffe" d="
  M 1176.38 0.00
  Q 1176.27 0.18 1175.96 0.29
  Q 1175.62 0.19 1175.42 0.00
  L 1176.38 0.00
  Z"
/>
<path fill="#34ac89" d="
  M 1195.25 0.00
  Q 1195.57 0.18 1196.02 0.23
  Q 1195.93 0.70 1195.73 1.13
  Q 1189.01 15.34 1188.18 32.26
  Q 1187.72 41.73 1188.69 50.27
  Q 1191.84 77.89 1211.31 97.54
  Q 1216.38 102.65 1222.65 106.35
  Q 1223.92 107.10 1224.77 108.73
  A 2.92 2.81 30.9 0 1 1225.09 109.91
  C 1225.87 124.53 1228.39 143.73 1240.26 153.57
  C 1247.47 159.55 1255.79 162.53 1265.17 164.41
  A 2.00 1.99 1.7 0 1 1266.75 166.08
  L 1280.03 259.65
  A 0.53 0.53 0.0 0 1 1279.18 260.15
  C 1256.65 243.36 1233.81 229.24 1209.43 216.25
  A 2.78 2.77 7.4 0 1 1208.03 214.44
  C 1201.26 186.51 1197.48 159.19 1192.51 128.41
  Q 1188.32 102.47 1186.18 87.57
  Q 1180.73 49.51 1175.58 1.50
  Q 1175.49 0.65 1175.96 0.29
  Q 1176.27 0.18 1176.38 0.00
  L 1195.25 0.00
  Z"
/>
<path fill="#fffffe" d="
  M 1196.50 0.00
  Q 1196.39 0.19 1196.02 0.23
  Q 1195.57 0.18 1195.25 0.00
  L 1196.50 0.00
  Z"
/>
<path fill="#fffffe" d="
  M 1211.88 0.00
  Q 1211.39 0.23 1210.71 0.30
  Q 1210.33 0.22 1210.13 0.00
  L 1211.88 0.00
  Z"
/>
<path fill="#f48f3d" d="
  M 1247.87 0.00
  Q 1248.21 0.26 1248.78 0.28
  Q 1249.08 0.92 1249.14 1.57
  Q 1253.06 43.92 1253.62 50.55
  Q 1255.84 76.94 1258.85 99.43
  Q 1259.03 100.71 1265.23 151.64
  A 0.38 0.38 0.0 0 1 1264.80 152.06
  C 1241.77 148.72 1239.10 129.39 1237.44 110.02
  Q 1236.74 101.92 1229.69 96.82
  C 1223.10 92.06 1217.47 87.94 1213.37 81.62
  C 1198.37 58.55 1194.46 27.54 1208.83 2.81
  Q 1209.62 1.45 1210.71 0.30
  Q 1211.39 0.23 1211.88 0.00
  L 1247.87 0.00
  Z"
/>
<path fill="#fec7a3" d="
  M 1248.98 0.00
  Q 1248.92 0.17 1248.78 0.28
  Q 1248.21 0.26 1247.87 0.00
  L 1248.98 0.00
  Z"
/>
<path fill="#fce3ba" d="
  M 1261.63 0.00
  Q 1261.52 0.17 1261.23 0.29
  Q 1261.01 0.20 1260.88 0.00
  L 1261.63 0.00
  Z"
/>
<path fill="#34ac89" d="
  M 1300.72 0.00
  Q 1300.95 0.21 1301.60 0.28
  Q 1302.73 18.88 1304.30 37.45
  Q 1307.42 74.39 1307.44 74.58
  Q 1310.98 121.33 1312.88 144.82
  Q 1319.38 224.69 1327.93 298.70
  A 0.15 0.15 0.0 0 1 1327.68 298.84
  L 1295.36 271.93
  A 3.87 3.86 14.9 0 1 1294.03 269.65
  Q 1291.77 257.46 1291.22 253.77
  C 1288.42 234.93 1284.39 211.30 1281.41 188.08
  C 1278.52 165.54 1276.22 141.88 1273.51 120.81
  Q 1271.08 101.85 1270.37 94.03
  C 1269.32 82.62 1267.58 70.64 1266.23 58.32
  Q 1264.38 41.37 1261.13 1.49
  Q 1261.06 0.66 1261.23 0.29
  Q 1261.52 0.17 1261.63 0.00
  L 1300.72 0.00
  Z"
/>
<path fill="#82cbee" d="
  M 1301.50 0.00
  Q 1301.55 0.14 1301.60 0.28
  Q 1300.95 0.21 1300.72 0.00
  L 1301.50 0.00
  Z"
/>
<path fill="#fffffe" d="
  M 1314.15 0.00
  Q 1314.10 0.18 1313.95 0.29
  Q 1313.60 0.20 1313.41 0.00
  L 1314.15 0.00
  Z"
/>
<path fill="#34ac89" d="
  M 1381.00 0.00
  L 1382.22 0.28
  L 1382.12 0.89
  A 1.36 1.34 -22.8 0 1 1381.87 1.49
  Q 1377.80 7.02 1376.12 11.87
  C 1369.37 31.33 1372.14 51.50 1384.19 68.12
  C 1389.42 75.33 1397.29 80.80 1405.75 83.23
  A 1.63 1.62 -82.6 0 1 1406.93 84.77
  L 1407.55 121.85
  A 0.52 0.52 0.0 0 1 1406.91 122.36
  Q 1402.04 121.12 1401.50 121.00
  C 1380.65 116.16 1353.79 123.25 1344.53 144.52
  C 1336.67 162.59 1340.59 179.49 1352.32 194.82
  A 2.41 2.40 39.2 0 1 1352.58 197.31
  Q 1350.27 202.24 1348.55 206.29
  C 1345.04 214.61 1344.42 224.76 1348.56 232.90
  C 1352.38 240.43 1359.42 245.73 1368.07 246.98
  Q 1368.66 247.07 1371.59 247.40
  A 2.66 2.65 -7.0 0 1 1373.76 249.09
  Q 1376.53 256.43 1381.61 262.87
  C 1388.44 271.55 1397.10 272.83 1407.69 271.65
  A 0.94 0.94 0.0 0 1 1408.74 272.57
  Q 1409.85 382.34 1409.88 383.31
  Q 1409.89 383.61 1409.72 383.86
  A 0.84 0.84 0.0 0 1 1408.37 383.91
  C 1389.04 359.39 1366.69 335.95 1344.43 314.45
  Q 1342.48 312.57 1341.58 310.75
  A 2.55 2.48 29.2 0 1 1341.33 309.91
  C 1338.65 285.38 1335.32 261.86 1333.26 240.04
  C 1327.11 174.97 1323.03 131.64 1320.01 88.26
  C 1318.05 60.13 1315.56 32.22 1313.54 1.50
  Q 1313.49 0.67 1313.95 0.29
  Q 1314.10 0.18 1314.15 0.00
  L 1381.00 0.00
  Z"
/>
<path fill="#fffffe" d="
  M 1382.50 0.00
  Q 1382.39 0.21 1382.22 0.28
  L 1381.00 0.00
  L 1382.50 0.00
  Z"
/>
<path fill="#fffffe" d="
  M 1402.25 0.00
  Q 1401.86 0.26 1401.16 0.31
  Q 1400.54 0.30 1399.98 0.00
  L 1402.25 0.00
  Z"
/>
<path fill="#f48f3d" d="
  M 1404.71 0.00
  L 1406.03 0.31
  Q 1406.31 0.99 1406.31 1.25
  C 1406.59 24.43 1407.56 48.68 1406.87 70.71
  A 0.67 0.66 -72.9 0 1 1405.85 71.25
  Q 1382.40 56.39 1384.41 27.83
  C 1385.18 16.97 1390.68 4.84 1401.16 0.31
  Q 1401.86 0.26 1402.25 0.00
  L 1404.71 0.00
  Z"
/>
<path fill="#fec7a3" d="
  M 1406.21 0.00
  Q 1406.16 0.19 1406.03 0.31
  L 1404.71 0.00
  L 1406.21 0.00
  Z"
/>
<path fill="#fffffe" d="
  M 1418.94 0.00
  Q 1418.86 0.23 1418.67 0.28
  L 1418.20 0.00
  L 1418.94 0.00
  Z"
/>
<path fill="#34ac89" d="
  M 1467.50 0.00
  Q 1467.95 0.20 1468.51 0.23
  L 1468.42 0.79
  A 2.45 2.42 -23.4 0 1 1468.06 1.68
  C 1461.36 11.56 1457.72 24.36 1458.93 36.04
  C 1460.66 52.71 1471.18 70.11 1487.68 76.10
  A 1.59 1.58 10.0 0 1 1488.73 77.59
  L 1488.73 277.17
  A 2.05 2.04 78.0 0 1 1487.52 279.04
  C 1454.82 293.65 1444.69 334.33 1469.39 361.60
  Q 1477.32 370.35 1487.68 376.27
  A 2.19 2.19 0.0 0 1 1488.78 378.17
  L 1488.78 412.58
  A 0.79 0.79 0.0 0 1 1487.90 413.37
  C 1479.21 412.41 1464.84 409.68 1438.66 405.22
  Q 1438.05 405.11 1427.12 403.42
  Q 1422.55 402.71 1421.88 397.32
  Q 1421.55 394.68 1421.44 381.00
  C 1421.07 334.41 1420.64 302.81 1419.73 265.68
  C 1419.36 250.81 1420.23 235.16 1419.86 221.06
  A 1.08 1.06 78.8 0 1 1420.54 220.03
  C 1435.87 213.99 1449.99 199.15 1451.82 182.28
  Q 1454.14 160.74 1440.95 144.80
  C 1435.21 137.86 1428.41 134.76 1420.09 132.06
  A 1.19 1.18 7.1 0 1 1419.28 131.03
  Q 1419.05 128.21 1419.01 121.50
  Q 1418.64 57.90 1418.20 2.50
  Q 1418.19 1.23 1418.67 0.28
  Q 1418.86 0.23 1418.94 0.00
  L 1467.50 0.00
  Z"
/>
<path fill="#fffffe" d="
  M 1468.75 0.00
  Q 1468.68 0.17 1468.51 0.23
  Q 1467.95 0.20 1467.50 0.00
  L 1468.75 0.00
  Z"
/>
<path fill="#fffffe" d="
  M 1485.89 0.00
  Q 1485.20 0.28 1484.19 0.30
  L 1483.72 0.00
  L 1485.89 0.00
  Z"
/>
<path fill="#f48f3d" d="
  M 1486.99 0.00
  Q 1487.67 0.33 1488.49 0.30
  L 1488.59 63.10
  A 0.31 0.31 0.0 0 1 1488.12 63.36
  C 1475.38 55.14 1469.74 41.91 1471.10 26.89
  Q 1472.49 11.61 1484.19 0.30
  Q 1485.20 0.28 1485.89 0.00
  L 1486.99 0.00
  Z"
/>
<path fill="#fffffe" d="
  M 1488.73 0.00
  Q 1488.65 0.19 1488.49 0.30
  Q 1487.67 0.33 1486.99 0.00
  L 1488.73 0.00
  Z"
/>
<path fill="#fce3ba" d="
  M 1773.00 0.00
  L 1773.00 73.40
  Q 1772.41 75.12 1772.62 77.29
  Q 1772.14 77.31 1771.97 77.02
  Q 1765.44 66.05 1760.42 59.81
  Q 1737.59 31.41 1706.22 12.80
  C 1701.70 10.11 1696.16 12.52 1696.43 18.32
  Q 1696.54 20.70 1698.96 27.56
  C 1707.94 53.00 1713.96 68.92 1719.04 90.42
  A 0.37 0.36 5.8 0 1 1718.53 90.83
  Q 1705.61 84.99 1691.58 80.35
  C 1687.18 78.89 1683.72 77.66 1680.45 79.94
  Q 1677.19 82.20 1678.11 86.50
  Q 1682.76 108.42 1689.99 137.27
  Q 1690.67 140.02 1691.42 142.14
  A 0.38 0.37 5.1 0 1 1690.88 142.59
  Q 1654.12 121.81 1612.53 131.11
  Q 1592.57 135.58 1575.78 143.00
  C 1572.61 144.40 1567.17 147.11 1565.80 150.38
  Q 1563.85 155.02 1568.33 158.58
  C 1569.93 159.86 1574.93 160.32 1576.99 160.36
  Q 1604.04 160.90 1629.35 170.18
  C 1656.21 180.03 1681.79 194.71 1701.54 215.14
  A 0.25 0.25 0.0 0 1 1701.24 215.53
  Q 1697.85 213.76 1694.79 212.75
  C 1670.61 204.78 1645.42 210.89 1626.45 227.45
  Q 1603.66 247.36 1589.91 274.29
  C 1585.98 281.99 1588.94 285.25 1596.80 285.92
  Q 1602.33 286.39 1607.19 286.09
  Q 1625.22 284.99 1643.22 281.09
  Q 1650.13 279.59 1665.34 274.60
  C 1681.23 269.39 1691.37 266.11 1703.68 263.41
  C 1706.69 262.75 1709.69 262.47 1712.86 263.84
  C 1724.59 268.91 1730.96 276.82 1737.71 286.74
  A 0.35 0.35 0.0 0 1 1737.42 287.29
  Q 1703.89 287.83 1696.49 287.76
  Q 1691.44 287.70 1689.14 289.02
  C 1684.48 291.67 1682.10 297.18 1681.75 302.50
  Q 1681.64 304.20 1681.38 331.40
  C 1681.30 339.18 1683.48 347.10 1691.24 349.79
  Q 1695.73 351.35 1697.04 351.68
  A 1.97 1.92 -12.9 0 1 1698.04 352.29
  Q 1699.40 353.84 1699.61 355.23
  Q 1703.81 382.46 1707.59 401.12
  Q 1711.46 420.18 1714.66 438.42
  Q 1718.34 459.38 1725.89 488.46
  Q 1726.66 491.40 1726.82 493.61
  A 0.61 0.61 0.0 0 1 1725.72 494.02
  C 1718.42 484.26 1710.27 480.70 1697.18 474.35
  Q 1670.96 461.65 1644.47 453.33
  Q 1616.38 444.51 1581.62 434.54
  Q 1565.85 430.01 1550.62 426.65
  C 1531.82 422.49 1519.23 419.36 1502.49 416.22
  A 0.99 0.98 -84.7 0 1 1501.69 415.25
  L 1501.67 0.00
  L 1773.00 0.00
  Z"
/>
<path fill="#fffffe" d="
  M 0.36 21.27
  L 0.00 22.00
  L 0.00 18.99
  L 0.36 21.27
  Z"
/>
<path fill="#fa9cac" d="
  M 1326.56 1426.85
  C 1332.19 1414.39 1336.38 1403.57 1341.81 1390.69
  Q 1351.79 1367.03 1356.35 1354.38
  C 1368.73 1320.02 1379.31 1283.67 1387.38 1246.08
  Q 1401.59 1179.97 1406.88 1119.75
  Q 1412.26 1058.59 1411.45 992.76
  Q 1411.24 974.89 1409.85 951.25
  C 1408.09 921.36 1406.68 894.15 1402.30 864.43
  Q 1395.79 820.21 1391.95 799.77
  Q 1388.19 779.84 1380.72 749.77
  Q 1372.32 715.97 1368.97 704.97
  Q 1356.65 664.48 1339.88 622.38
  Q 1332.82 604.67 1322.99 584.04
  Q 1297.86 531.29 1274.89 495.85
  Q 1257.31 468.71 1235.72 443.51
  Q 1224.77 430.72 1210.79 418.96
  Q 1209.45 417.84 1207.68 417.42
  A 1.24 1.24 0.0 0 0 1206.16 418.76
  Q 1206.32 420.28 1207.49 422.01
  C 1211.38 427.76 1215.17 433.88 1219.06 439.22
  C 1227.33 450.55 1236.16 461.97 1242.63 471.61
  Q 1267.29 508.34 1287.16 546.61
  C 1300.68 572.65 1314.17 599.83 1324.18 625.83
  Q 1327.07 633.34 1333.86 651.35
  Q 1340.73 669.59 1343.08 677.04
  Q 1350.94 701.94 1353.91 711.58
  Q 1358.56 726.69 1366.43 759.82
  C 1375.98 800.03 1381.02 837.22 1385.90 881.03
  Q 1391.17 928.25 1391.53 976.50
  Q 1391.60 984.72 1391.17 993.34
  A 0.45 0.45 0.0 0 1 1390.40 993.62
  C 1383.67 986.38 1377.16 978.01 1371.51 969.65
  C 1367.49 963.70 1362.58 957.72 1359.33 952.63
  C 1344.07 928.69 1333.24 903.26 1321.67 876.12
  Q 1319.20 870.35 1316.52 862.50
  C 1314.99 858.03 1314.40 854.92 1314.62 849.76
  C 1314.89 843.62 1315.61 833.17 1315.38 824.74
  Q 1314.54 794.53 1309.63 769.78
  Q 1303.78 740.32 1290.10 706.05
  C 1286.57 697.18 1281.89 688.75 1277.82 680.12
  A 1.86 1.84 -25.4 0 0 1275.34 679.25
  C 1273.71 680.02 1274.47 683.81 1274.84 685.21
  Q 1277.52 695.27 1285.86 728.92
  Q 1291.47 751.54 1293.54 763.24
  Q 1299.03 794.18 1299.31 824.76
  Q 1299.50 845.50 1296.14 869.67
  C 1294.01 885.02 1289.43 898.73 1283.87 913.11
  Q 1277.63 929.24 1268.44 943.10
  A 0.40 0.40 0.0 0 1 1267.71 942.88
  C 1267.61 917.22 1265.84 892.47 1260.46 866.68
  C 1255.47 842.75 1248.73 818.89 1238.60 797.38
  C 1230.86 780.93 1221.89 764.62 1210.30 749.68
  Q 1209.10 748.13 1207.60 747.48
  A 1.34 1.34 0.0 0 0 1205.74 748.64
  C 1205.44 754.23 1207.83 760.21 1210.45 766.82
  Q 1219.20 788.89 1223.63 800.88
  Q 1232.21 824.13 1238.41 848.14
  A 0.22 0.22 0.0 0 1 1238.05 848.35
  Q 1217.23 828.51 1199.89 806.62
  Q 1162.49 759.43 1136.85 710.18
  Q 1127.40 692.05 1121.44 679.41
  A 1.44 1.44 0.0 0 0 1118.89 679.31
  Q 1118.37 680.22 1118.28 681.76
  Q 1117.61 692.43 1119.64 710.12
  C 1122.92 738.74 1129.63 773.30 1137.66 804.37
  C 1141.48 819.12 1146.59 833.04 1151.48 848.48
  C 1156.69 864.91 1162.91 880.81 1169.63 896.79
  A 0.25 0.25 0.0 0 1 1169.27 897.11
  Q 1129.82 874.50 1096.92 842.83
  C 1085.70 832.02 1073.83 819.67 1063.80 807.33
  Q 1039.12 776.96 1021.54 746.72
  C 1014.94 735.35 1007.50 722.45 1002.82 712.60
  Q 992.35 690.60 986.80 673.94
  Q 984.64 667.46 982.15 654.12
  Q 981.62 651.31 978.18 629.58
  Q 977.50 625.30 976.09 622.63
  A 1.33 1.33 0.0 0 0 973.75 622.60
  Q 972.68 624.52 972.38 626.69
  C 970.96 636.96 970.24 644.63 970.06 652.18
  Q 968.81 705.73 977.43 760.37
  Q 979.95 776.33 984.50 794.46
  C 988.07 808.72 991.08 824.53 995.50 839.54
  Q 1001.28 859.19 1009.09 879.95
  Q 1012.80 889.81 1019.59 903.90
  Q 1024.36 913.83 1031.02 930.00
  A 0.29 0.29 0.0 0 1 1030.71 930.40
  C 960.15 920.90 899.05 875.01 864.32 814.08
  C 859.50 805.62 855.08 795.07 851.45 788.80
  Q 850.59 787.30 849.58 786.31
  A 1.56 1.56 0.0 0 0 847.44 786.29
  C 845.19 788.38 846.15 795.09 846.63 798.33
  C 848.58 811.75 851.48 823.39 855.22 835.03
  C 857.48 842.06 859.15 849.62 861.17 857.60
  Q 867.63 883.14 878.58 911.02
  C 884.59 926.32 894.91 945.36 901.14 957.33
  A 0.24 0.24 0.0 0 1 900.86 957.67
  C 885.74 953.29 873.62 947.67 858.16 939.08
  Q 831.31 924.16 809.90 902.84
  Q 789.11 882.13 771.90 856.36
  Q 748.82 821.81 732.95 782.33
  Q 729.47 773.66 723.30 756.44
  Q 720.30 748.08 717.28 742.70
  A 1.62 1.62 0.0 0 0 714.37 742.87
  Q 713.70 744.46 713.85 746.57
  Q 715.16 765.39 718.46 780.76
  C 723.28 803.19 728.96 823.80 734.61 845.43
  Q 737.60 856.91 741.45 868.27
  A 0.21 0.20 -72.5 0 1 741.09 868.46
  C 736.17 861.53 730.27 855.31 725.72 848.76
  C 698.29 809.27 678.41 766.98 668.63 720.92
  Q 663.60 697.24 660.59 675.48
  Q 659.08 664.55 658.62 655.62
  Q 656.22 608.85 660.47 573.24
  C 662.00 560.45 665.05 539.65 668.39 522.91
  Q 669.86 515.59 673.44 502.61
  Q 680.69 476.35 684.32 464.28
  Q 684.62 463.28 684.77 461.30
  A 1.67 1.61 -79.8 0 0 683.63 459.59
  C 681.57 458.97 678.78 463.15 677.70 464.96
  C 668.85 479.79 664.94 490.98 657.68 511.70
  Q 657.30 512.77 654.77 522.28
  Q 651.74 533.63 646.31 563.26
  Q 638.59 605.28 640.84 647.91
  A 11.08 11.07 -34.9 0 1 639.97 652.81
  Q 634.94 664.49 627.50 679.76
  Q 625.33 684.21 618.22 702.13
  C 609.95 722.96 604.52 742.58 597.84 766.35
  Q 591.73 788.12 588.79 808.51
  Q 584.29 839.73 584.01 868.49
  Q 583.88 882.05 585.13 895.13
  A 0.33 0.33 0.0 0 1 584.59 895.42
  Q 577.40 889.44 571.46 882.53
  Q 560.89 870.26 551.77 856.41
  C 538.85 836.79 529.37 813.75 523.48 791.29
  C 514.23 756.05 510.24 719.37 514.09 683.52
  Q 517.29 653.59 523.42 629.92
  Q 529.40 606.83 533.18 591.45
  Q 533.39 590.60 533.86 587.93
  A 1.18 1.17 81.8 0 0 532.18 586.67
  Q 529.49 587.99 527.12 591.39
  C 520.86 600.41 516.30 611.78 512.83 623.10
  Q 502.09 658.13 498.36 695.92
  C 497.32 706.50 497.82 722.41 497.95 731.71
  Q 498.17 748.69 501.62 767.43
  C 502.21 770.64 502.08 773.13 501.11 776.41
  Q 486.71 824.79 465.75 868.22
  C 452.32 896.04 438.59 921.68 421.26 946.76
  Q 417.46 952.25 403.72 970.84
  C 398.99 977.24 393.27 983.44 388.49 990.22
  Q 388.29 990.50 387.96 990.55
  A 0.48 0.48 0.0 0 1 387.40 990.09
  C 386.82 938.60 391.44 887.30 398.76 835.50
  C 403.01 805.46 408.68 778.00 414.69 749.97
  Q 415.68 745.35 417.41 739.18
  C 422.29 721.79 429.00 696.68 435.59 677.53
  C 440.20 664.12 444.05 651.09 449.09 637.30
  Q 467.05 588.24 486.50 548.00
  Q 488.65 543.55 500.02 521.74
  Q 520.81 481.82 547.55 444.78
  Q 562.62 423.90 575.25 407.50
  Q 576.96 405.29 579.10 401.84
  Q 580.06 400.30 579.97 399.32
  A 1.53 1.53 0.0 0 0 577.76 398.11
  Q 572.26 400.90 566.67 405.93
  Q 558.37 413.41 550.12 422.62
  Q 535.92 438.45 524.41 454.65
  Q 500.76 487.94 482.77 522.27
  Q 461.87 562.16 448.42 595.69
  C 443.40 608.21 432.39 633.79 426.44 652.88
  C 423.01 663.89 418.95 674.80 415.25 687.28
  Q 402.63 729.85 400.36 739.07
  Q 388.77 786.17 381.05 835.50
  Q 376.55 864.23 370.39 925.35
  Q 369.52 934.02 368.91 946.16
  C 368.44 955.31 367.45 964.74 367.21 973.96
  Q 366.22 1012.27 367.03 1044.00
  C 367.67 1069.39 370.27 1096.74 373.92 1127.10
  C 378.34 1163.92 382.21 1195.17 388.39 1223.39
  C 396.30 1259.44 403.20 1287.90 413.74 1320.09
  A 0.22 0.22 0.0 0 1 413.35 1320.27
  Q 409.63 1314.03 405.67 1306.86
  C 383.63 1267.04 362.31 1225.42 343.89 1183.91
  C 320.76 1131.79 301.52 1077.81 287.29 1021.95
  Q 283.38 1006.58 280.38 991.19
  C 277.68 977.29 274.36 962.07 272.43 949.89
  Q 260.20 872.78 264.54 794.50
  Q 265.94 769.33 267.48 752.25
  Q 269.75 727.12 269.82 724.26
  Q 269.86 722.83 269.61 722.38
  A 1.62 1.62 0.0 0 0 266.99 722.06
  C 263.92 725.43 262.13 732.04 261.07 736.32
  Q 259.10 744.31 256.33 763.27
  C 254.20 777.83 251.95 797.08 251.27 813.29
  C 249.13 864.05 251.88 913.50 260.64 963.15
  Q 266.23 994.85 272.10 1018.94
  Q 273.62 1025.17 282.68 1057.40
  Q 289.02 1079.96 294.37 1095.51
  C 308.02 1135.17 323.25 1173.82 341.21 1211.33
  Q 343.88 1216.91 354.96 1240.58
  Q 358.38 1247.88 368.95 1267.80
  C 379.87 1288.36 390.38 1310.39 402.18 1329.13
  Q 408.20 1338.69 414.93 1351.26
  Q 421.81 1364.12 435.74 1386.99
  Q 446.01 1403.87 461.23 1432.10
  C 465.12 1439.33 470.23 1447.34 473.51 1453.72
  Q 477.00 1460.50 488.11 1482.07
  C 491.92 1489.47 497.62 1501.87 502.98 1511.60
  Q 505.54 1516.25 508.68 1523.52
  Q 524.86 1560.96 529.54 1571.94
  C 533.89 1582.13 539.86 1596.61 543.89 1608.09
  C 548.91 1622.37 552.99 1632.52 556.63 1644.22
  Q 561.51 1659.88 568.03 1681.06
  A 0.29 0.29 0.0 0 1 567.51 1681.30
  Q 560.15 1670.16 555.63 1664.58
  C 548.17 1655.36 543.12 1648.62 536.26 1641.05
  Q 510.25 1612.33 479.76 1588.50
  C 450.66 1565.75 417.79 1544.02 391.04 1523.96
  Q 363.03 1502.96 331.23 1473.52
  Q 278.68 1424.87 238.20 1366.82
  Q 224.41 1347.04 208.96 1318.80
  Q 192.10 1287.98 180.54 1258.94
  Q 168.26 1228.07 159.07 1195.94
  C 153.85 1177.69 150.75 1160.86 146.07 1140.23
  Q 140.57 1115.99 135.76 1073.49
  Q 135.59 1072.03 135.92 1068.74
  Q 139.23 1035.52 144.63 1006.94
  Q 147.90 989.59 152.57 964.57
  C 159.16 929.22 167.35 894.94 176.35 859.07
  C 179.17 847.81 183.61 832.71 186.81 820.62
  Q 192.82 797.94 202.04 768.20
  C 207.71 749.94 214.20 733.51 219.96 715.74
  Q 222.85 706.81 228.17 692.71
  Q 235.35 673.67 236.91 669.89
  C 248.91 640.78 256.33 622.17 267.12 599.14
  C 279.19 573.39 289.86 550.90 302.52 528.11
  C 313.76 507.90 321.57 493.71 332.49 476.73
  Q 349.98 449.53 367.49 426.25
  C 379.97 409.65 390.18 396.13 403.17 381.67
  C 411.24 372.68 418.97 363.79 426.67 356.15
  Q 446.96 336.03 450.66 332.67
  Q 479.31 306.68 509.97 284.00
  Q 577.73 233.88 656.87 207.14
  Q 679.83 199.38 709.02 193.50
  Q 739.32 187.40 766.49 187.59
  Q 804.33 187.86 839.13 201.15
  Q 852.88 206.40 856.95 207.53
  Q 859.66 208.29 860.62 206.17
  C 862.25 202.62 855.83 195.49 853.30 193.10
  Q 846.65 186.79 840.93 181.05
  Q 809.95 149.92 796.23 108.05
  Q 788.59 84.73 786.16 61.78
  Q 784.38 44.98 783.94 25.34
  A 0.50 0.50 0.0 0 1 784.71 24.91
  Q 793.31 30.42 801.95 37.81
  C 822.98 55.80 840.00 71.77 856.29 91.45
  Q 866.03 103.21 875.71 119.31
  Q 882.30 130.26 889.51 149.70
  C 892.56 157.90 894.40 166.72 895.13 175.34
  Q 896.21 188.26 896.58 190.92
  C 897.25 195.67 898.92 202.32 905.20 199.97
  C 916.15 195.90 929.21 191.62 941.26 189.27
  Q 971.89 183.32 1000.02 184.13
  Q 1033.28 185.08 1063.52 191.77
  Q 1094.79 198.69 1119.93 207.62
  Q 1145.03 216.54 1157.11 221.93
  C 1168.04 226.82 1182.16 233.37 1194.55 240.01
  Q 1241.59 265.23 1282.94 298.31
  Q 1321.85 329.42 1355.23 365.51
  Q 1366.84 378.07 1379.22 392.26
  Q 1390.46 405.15 1407.18 427.80
  C 1426.37 453.81 1445.64 482.49 1462.18 512.07
  Q 1484.43 551.85 1500.72 586.49
  Q 1515.03 616.90 1531.78 657.21
  C 1537.78 671.67 1545.27 692.47 1549.73 704.71
  Q 1557.14 725.06 1570.00 763.76
  Q 1575.13 779.21 1585.35 815.26
  Q 1590.14 832.16 1592.99 841.59
  Q 1599.50 863.08 1600.61 867.93
  Q 1604.81 886.39 1615.47 930.72
  C 1619.99 949.53 1623.05 966.28 1627.30 985.32
  C 1632.15 1007.01 1636.46 1035.05 1640.09 1056.62
  A 22.10 6.30 70.5 0 1 1640.57 1064.35
  C 1639.09 1079.40 1635.67 1095.43 1631.41 1118.22
  C 1628.47 1133.96 1624.16 1148.79 1617.23 1174.99
  C 1609.25 1205.15 1598.91 1232.82 1586.19 1261.41
  C 1555.28 1330.88 1510.94 1394.62 1458.81 1449.82
  Q 1432.64 1477.54 1405.04 1502.79
  C 1393.73 1513.13 1381.22 1524.53 1370.48 1533.88
  C 1331.13 1568.15 1302.70 1592.14 1272.81 1622.56
  Q 1257.84 1637.80 1240.32 1658.82
  Q 1226.51 1675.38 1214.62 1694.61
  A 0.29 0.29 0.0 0 1 1214.09 1694.48
  Q 1214.05 1693.94 1214.17 1693.47
  Q 1222.78 1659.68 1236.35 1624.08
  Q 1237.55 1620.92 1247.39 1596.48
  Q 1253.42 1581.51 1259.08 1569.17
  Q 1269.67 1546.10 1280.57 1524.31
  Q 1283.82 1517.81 1290.10 1508.85
  C 1305.93 1486.27 1318.58 1465.77 1341.48 1429.76
  Q 1367.50 1388.85 1393.37 1340.62
  Q 1442.91 1248.23 1477.38 1148.30
  C 1485.25 1125.47 1492.47 1100.82 1497.94 1080.48
  Q 1502.88 1062.08 1508.83 1034.56
  Q 1523.27 967.83 1526.75 899.75
  Q 1528.49 865.71 1526.81 833.93
  Q 1526.40 826.09 1523.71 799.26
  Q 1521.08 773.11 1514.57 750.45
  Q 1513.71 747.45 1512.00 745.64
  A 1.91 1.75 42.6 0 0 1509.22 745.63
  C 1507.93 747.28 1508.88 753.16 1509.09 755.24
  Q 1512.98 794.99 1514.92 827.00
  Q 1516.59 854.50 1514.97 886.25
  Q 1511.90 946.45 1500.79 1006.65
  Q 1498.50 1019.06 1494.05 1037.51
  Q 1486.84 1067.43 1486.65 1068.19
  C 1481.46 1088.85 1474.96 1112.15 1467.28 1134.35
  Q 1451.24 1180.69 1438.68 1211.24
  Q 1420.65 1255.11 1393.36 1309.65
  C 1374.37 1347.62 1352.38 1385.11 1329.66 1422.65
  Q 1328.37 1424.78 1326.72 1426.94
  A 0.09 0.09 0.0 0 1 1326.56 1426.85
  Z
  M 926.67 227.33
  C 924.38 232.17 933.56 232.16 936.03 231.98
  C 966.75 229.74 995.59 236.42 1023.70 248.83
  Q 1049.11 260.05 1070.95 274.09
  Q 1076.76 277.82 1086.27 283.49
  Q 1088.20 284.64 1090.43 284.86
  A 1.90 1.77 -2.8 0 0 1092.51 282.73
  Q 1092.26 281.60 1091.09 280.43
  Q 1051.10 240.29 997.91 223.86
  C 978.55 217.88 956.34 215.04 936.78 220.47
  C 932.94 221.54 928.43 223.60 926.67 227.33
  Z
  M 652.35 288.85
  A 1.00 1.00 0.0 0 0 653.36 290.15
  Q 655.27 290.03 657.27 288.76
  Q 669.27 281.15 679.63 274.90
  Q 713.75 254.31 749.89 241.68
  Q 769.11 234.96 788.25 233.29
  Q 792.64 232.91 805.99 232.13
  C 809.36 231.93 815.26 231.02 817.95 228.52
  A 2.04 2.03 -39.5 0 0 818.22 225.84
  C 814.73 220.98 801.39 219.44 795.24 219.21
  Q 775.36 218.48 755.69 223.96
  C 730.08 231.10 706.09 243.60 684.46 258.62
  C 673.60 266.16 664.28 273.86 655.01 283.97
  Q 653.37 285.76 652.35 288.85
  Z
  M 770.97 356.44
  C 776.14 348.49 780.94 334.32 786.43 324.43
  C 792.91 312.75 797.31 303.47 804.13 293.57
  Q 817.24 274.53 834.06 258.05
  Q 841.61 250.65 850.80 242.56
  Q 852.09 241.42 851.96 240.05
  A 2.99 2.76 -0.3 0 0 849.20 237.53
  Q 841.57 237.02 834.39 241.17
  C 821.63 248.56 810.16 259.98 801.42 271.90
  C 784.84 294.48 771.78 321.64 767.44 348.73
  Q 766.65 353.62 767.84 356.21
  A 1.79 1.79 0.0 0 0 770.97 356.44
  Z"
/>
<path fill="#898b3c" d="
  M 1714.17 33.54
  A 0.46 0.46 0.0 0 1 1714.88 33.05
  Q 1754.30 59.61 1771.17 103.76
  Q 1771.97 105.85 1772.01 107.51
  Q 1772.24 115.94 1771.08 122.03
  Q 1770.44 125.39 1770.43 129.08
  A 0.69 0.69 0.0 0 1 1769.20 129.51
  C 1759.99 117.87 1747.21 107.74 1734.63 99.61
  Q 1732.82 98.44 1732.17 94.66
  Q 1728.76 74.81 1723.91 61.07
  Q 1720.75 52.14 1715.66 38.57
  Q 1714.92 36.62 1714.17 33.54
  Z"
/>
<path fill="#fffffe" d="
  M 0.34 41.97
  Q 0.46 43.06 0.00 43.88
  L 0.00 41.37
  Q 0.22 41.52 0.34 41.97
  Z"
/>
<path fill="#fffffe" d="
  M 0.00 224.70
  L 0.00 54.14
  Q 33.81 65.16 51.49 95.19
  C 56.00 102.85 58.52 109.94 60.87 118.68
  A 1.02 1.02 0.0 0 0 62.48 119.22
  C 86.25 100.96 117.66 100.90 141.88 118.39
  C 157.47 129.66 166.45 149.32 164.82 168.31
  A 0.57 0.56 88.4 0 0 165.46 168.92
  Q 187.74 165.80 209.93 168.38
  C 225.57 170.19 240.00 173.17 254.10 179.39
  C 263.75 183.64 272.52 190.50 276.19 201.06
  C 281.14 215.32 255.52 217.90 247.49 218.68
  Q 222.56 221.11 205.25 221.57
  Q 188.60 222.01 185.75 222.11
  C 152.36 223.32 117.32 222.92 75.51 222.99
  C 72.46 223.00 68.04 223.44 64.25 223.73
  Q 62.40 223.87 40.84 223.93
  C 35.24 223.94 30.55 224.66 25.27 224.65
  Q 12.63 224.62 0.00 224.70
  Z"
/>
<path fill="#82cbee" d="
  M 981.74 67.95
  Q 984.24 71.36 986.68 75.08
  Q 1005.06 103.18 1019.51 130.73
  Q 1027.07 145.14 1031.82 156.44
  Q 1032.42 157.86 1032.65 158.86
  A 0.30 0.30 0.0 0 1 1032.32 159.23
  C 994.92 154.70 957.34 156.34 920.95 165.75
  A 1.00 0.99 77.4 0 1 919.73 164.97
  C 915.66 143.93 909.14 123.52 898.40 105.12
  Q 891.09 92.59 882.24 81.25
  Q 878.82 76.86 874.27 71.02
  Q 889.81 69.76 904.56 69.76
  C 908.25 69.76 911.40 69.06 914.74 69.06
  Q 926.44 69.07 931.43 68.80
  C 947.08 67.96 957.34 68.15 977.05 67.62
  Q 977.85 67.60 979.39 68.03
  Q 980.86 68.43 981.74 67.95
  Z"
/>
<path fill="#fffffe" d="
  M 1773.00 73.40
  L 1773.00 78.47
  Q 1772.54 78.20 1772.62 77.29
  Q 1772.41 75.12 1773.00 73.40
  Z"
/>
<path fill="#898b3c" d="
  M 1772.67 154.99
  L 1773.00 155.75
  L 1773.00 205.78
  L 1772.82 209.00
  Q 1772.04 208.83 1771.84 208.39
  C 1765.66 194.51 1759.13 181.58 1750.52 169.24
  Q 1746.59 163.59 1741.86 158.88
  A 2.66 2.65 54.2 0 0 1738.81 158.38
  C 1734.38 160.56 1736.40 163.58 1738.30 167.26
  Q 1745.25 180.70 1751.73 192.78
  Q 1763.06 213.91 1770.35 236.97
  C 1771.31 240.00 1771.75 243.31 1772.59 246.54
  L 1773.00 248.01
  L 1773.00 271.78
  L 1772.83 275.30
  L 1772.33 274.98
  A 1.61 1.57 -86.5 0 1 1771.71 274.26
  Q 1766.41 262.29 1763.07 257.14
  C 1756.77 247.42 1747.95 239.27 1737.77 232.82
  C 1732.59 229.55 1727.99 224.62 1725.77 219.98
  Q 1718.83 205.48 1714.44 189.82
  Q 1708.41 168.31 1704.85 150.94
  Q 1697.37 114.40 1695.61 106.89
  Q 1694.10 100.42 1692.21 94.22
  A 0.78 0.75 -15.6 0 1 1692.77 93.27
  Q 1692.96 93.22 1693.37 93.39
  Q 1708.43 99.51 1718.45 104.81
  Q 1742.23 117.40 1759.53 136.73
  Q 1766.29 144.29 1771.35 152.58
  Q 1772.05 153.72 1772.67 154.99
  Z"
/>
<path fill="#fffffe" d="
  M 1773.00 106.68
  L 1773.00 114.42
  L 1773.00 106.68
  Z"
/>
<path fill="#f48f3d" d="
  M 1408.09 259.08
  A 0.80 0.80 0.0 0 1 1407.41 259.87
  C 1403.03 260.49 1398.28 260.88 1394.42 258.08
  Q 1388.71 253.94 1386.22 247.03
  C 1384.35 241.85 1385.55 237.28 1378.74 235.74
  C 1373.69 234.60 1364.83 235.27 1360.49 229.09
  C 1354.55 220.65 1360.21 210.33 1364.01 201.78
  C 1366.32 196.55 1365.57 192.75 1362.23 187.94
  Q 1357.52 181.17 1355.92 177.56
  Q 1347.26 158.13 1360.48 142.03
  Q 1362.64 139.39 1366.76 137.07
  Q 1384.80 126.90 1403.96 133.75
  C 1407.63 135.06 1407.22 137.06 1407.30 140.94
  C 1408.08 181.17 1407.86 216.73 1408.09 259.08
  Z"
/>
<path fill="#898b3c" d="
  M 1704.02 198.88
  A 0.26 0.25 -79.8 0 1 1703.62 199.16
  Q 1694.87 192.36 1681.98 183.32
  Q 1670.39 175.20 1659.02 169.58
  C 1642.21 161.26 1624.28 154.70 1605.99 151.52
  Q 1602.13 150.84 1594.58 149.56
  A 0.40 0.40 0.0 0 1 1594.50 148.79
  C 1616.42 140.24 1643.52 136.39 1665.78 144.51
  C 1675.56 148.08 1683.41 152.88 1692.62 157.63
  A 2.91 2.88 -82.1 0 1 1694.14 159.66
  Q 1698.22 180.33 1704.02 198.88
  Z"
/>
<path fill="#f48f3d" d="
  M 1420.21 145.46
  Q 1420.95 145.77 1424.02 147.53
  Q 1441.28 157.39 1440.40 177.54
  C 1439.86 189.90 1431.41 201.33 1420.32 206.84
  A 0.50 0.50 0.0 0 1 1419.60 206.39
  L 1419.60 145.87
  A 0.44 0.44 0.0 0 1 1420.21 145.46
  Z"
/>
<path fill="#f48f3d" d="
  M 1193.21 207.17
  A 0.26 0.25 8.8 0 1 1192.84 207.44
  Q 1174.91 198.13 1155.49 190.65
  A 2.97 2.95 -82.5 0 1 1153.60 188.17
  Q 1152.73 179.42 1154.80 170.25
  C 1157.64 157.66 1167.65 146.15 1181.57 146.55
  A 1.18 1.18 0.0 0 1 1182.70 147.53
  L 1193.21 207.17
  Z"
/>
<path fill="#fffffe" d="
  M 1773.00 153.49
  L 1773.00 155.75
  L 1772.67 154.99
  L 1773.00 153.49
  Z"
/>
<path fill="#fffffe" d="
  M 1773.00 205.78
  L 1773.00 210.16
  Q 1772.65 210.17 1772.82 209.00
  L 1773.00 205.78
  Z"
/>
<path fill="#898b3c" d="
  M 1740.93 251.44
  A 0.17 0.16 -9.6 0 1 1740.75 251.69
  C 1715.12 245.38 1691.08 252.98 1666.46 261.08
  Q 1647.73 267.23 1640.84 268.83
  Q 1622.71 273.05 1604.98 273.48
  A 0.44 0.43 14.3 0 1 1604.59 272.83
  Q 1616.00 253.01 1633.08 237.82
  Q 1641.68 230.18 1652.63 225.37
  C 1665.71 219.62 1678.42 219.80 1691.93 223.60
  A 0.30 0.30 0.0 0 1 1691.90 224.19
  Q 1677.94 226.59 1665.52 232.75
  C 1662.73 234.14 1657.80 236.63 1656.97 239.97
  C 1655.91 244.24 1660.13 245.01 1663.14 243.76
  C 1666.00 242.57 1670.12 240.71 1674.19 239.41
  Q 1688.11 234.94 1707.51 234.99
  Q 1716.51 235.00 1722.56 237.71
  C 1728.54 240.38 1733.40 244.55 1738.56 248.90
  Q 1740.18 250.27 1740.93 251.44
  Z"
/>
<path fill="#fffffe" d="
  M 1773.00 244.23
  L 1773.00 248.01
  L 1772.59 246.54
  L 1773.00 244.23
  Z"
/>
<path fill="#898b3c" d="
  M 1733.01 261.98
  Q 1745.18 264.78 1754.74 271.04
  C 1759.16 273.93 1762.10 281.44 1763.84 286.54
  A 0.51 0.51 0.0 0 1 1763.35 287.22
  Q 1759.30 287.18 1754.95 287.25
  Q 1752.78 287.28 1751.75 285.76
  C 1745.06 275.86 1740.80 269.17 1732.74 262.54
  A 0.32 0.32 0.0 0 1 1733.01 261.98
  Z"
/>
<path fill="#fffffe" d="
  M 1773.00 271.78
  L 1773.00 276.74
  Q 1772.60 276.45 1772.83 275.30
  L 1773.00 271.78
  Z"
/>
<path fill="#f48f3d" d="
  M 1488.68 361.58
  A 0.63 0.63 0.0 0 1 1487.69 362.09
  Q 1478.77 355.85 1473.70 347.04
  C 1465.55 332.88 1466.08 315.65 1475.97 302.37
  C 1479.19 298.05 1483.31 294.84 1487.89 291.76
  A 0.51 0.51 0.0 0 1 1488.68 292.18
  L 1488.68 361.58
  Z"
/>
<path fill="#ee667c" d="
  M 1772.74 300.02
  Q 1772.72 300.93 1773.00 301.26
  L 1773.00 337.50
  Q 1772.80 337.80 1772.76 338.28
  Q 1772.13 338.38 1771.50 338.38
  Q 1721.57 338.69 1699.28 338.73
  C 1694.18 338.74 1694.00 335.12 1693.91 330.50
  Q 1693.85 327.31 1693.69 304.51
  C 1693.66 299.68 1697.07 299.76 1701.00 299.74
  Q 1733.17 299.50 1771.51 299.68
  Q 1772.08 299.68 1772.74 300.02
  Z"
/>
<path fill="#fffffe" d="
  M 1773.00 299.49
  L 1773.00 301.26
  Q 1772.72 300.93 1772.74 300.02
  Q 1772.82 299.68 1773.00 299.49
  Z"
/>
<path fill="#fffffe" d="
  M 0.34 316.99
  Q 0.24 317.23 0.00 317.37
  L 0.00 316.00
  Q 0.24 315.79 0.34 316.99
  Z"
/>
<path fill="#fffffe" d="
  M 0.35 330.48
  Q 0.29 331.18 0.00 331.76
  L 0.00 329.62
  Q 0.28 329.86 0.35 330.48
  Z"
/>
<path fill="#fffffe" d="
  M 1773.00 337.50
  L 1773.00 338.47
  Q 1772.84 338.41 1772.76 338.28
  Q 1772.80 337.80 1773.00 337.50
  Z"
/>
<path fill="#ee667c" d="
  M 1772.76 350.57
  Q 1772.69 351.06 1773.00 351.25
  L 1773.00 492.25
  Q 1772.82 492.58 1772.77 493.05
  L 1740.49 493.26
  A 0.83 0.83 0.0 0 1 1739.68 492.60
  C 1737.84 484.02 1733.26 467.84 1730.77 454.74
  Q 1721.85 407.78 1721.46 406.24
  Q 1720.17 401.15 1716.31 378.76
  Q 1713.81 364.23 1710.94 351.28
  A 0.41 0.40 -6.2 0 1 1711.34 350.79
  L 1772.76 350.57
  Z"
/>
<path fill="#fffffe" d="
  M 1773.00 350.25
  L 1773.00 351.25
  Q 1772.69 351.06 1772.76 350.57
  Q 1772.83 350.35 1773.00 350.25
  Z"
/>
<path fill="#fce3ba" d="
  M 0.30 375.55
  L 0.00 375.84
  L 0.00 374.24
  Q 0.51 374.42 0.30 375.55
  Z"
/>
<path fill="#fffffe" d="
  M 0.33 388.49
  Q 0.70 389.26 0.00 389.87
  L 0.00 388.12
  Q 0.18 388.20 0.33 388.49
  Z"
/>
<path fill="#82cbee" d="
  M 0.00 735.55
  L 0.00 389.87
  Q 0.70 389.26 0.33 388.49
  L 361.12 388.21
  A 0.53 0.53 0.0 0 1 361.53 389.08
  L 351.48 401.15
  A 4.93 4.90 -74.5 0 1 348.49 402.85
  Q 306.98 409.53 268.25 417.00
  Q 262.52 418.11 228.57 425.67
  Q 209.00 430.03 189.25 435.72
  C 145.32 448.36 114.62 456.92 79.27 473.48
  C 69.04 478.27 60.82 482.36 53.13 490.64
  C 48.25 495.88 46.69 500.87 46.60 507.98
  Q 46.46 519.61 48.42 529.11
  Q 49.87 536.13 56.01 562.56
  C 58.57 573.59 61.44 582.45 64.26 592.95
  Q 65.33 596.95 68.07 604.95
  Q 83.76 650.70 104.27 695.52
  Q 113.24 715.13 123.69 734.74
  A 0.49 0.49 0.0 0 1 123.26 735.46
  L 0.00 735.55
  Z"
/>
<path fill="#fa9cac" d="
  M 327.50 431.59
  A 0.43 0.43 0.0 0 1 327.91 432.27
  C 319.89 442.91 313.28 454.48 306.13 465.63
  C 292.72 486.53 281.96 506.53 268.15 531.98
  Q 261.29 544.60 252.53 563.38
  Q 229.82 612.05 226.91 619.16
  Q 207.17 667.29 205.74 670.97
  Q 193.65 702.08 189.37 716.09
  Q 183.58 735.04 178.80 748.21
  C 176.56 754.36 173.85 762.69 172.30 767.90
  A 0.38 0.38 0.0 0 1 171.63 768.01
  Q 164.24 757.72 158.90 746.11
  C 157.85 743.85 156.96 741.48 157.16 738.94
  C 157.93 728.88 162.59 720.21 171.08 715.02
  Q 174.11 713.17 178.73 710.63
  A 1.93 1.93 0.0 0 0 179.53 708.06
  C 171.91 693.04 167.54 678.06 174.16 661.85
  C 179.70 648.31 191.77 641.06 205.37 636.63
  Q 206.30 636.33 208.44 634.92
  A 0.79 0.79 0.0 0 0 208.76 634.02
  Q 208.19 632.27 207.60 631.16
  C 204.54 625.37 201.82 620.00 200.45 614.34
  Q 196.05 596.28 205.06 581.08
  C 210.65 571.65 221.12 563.96 231.05 560.54
  Q 234.91 559.21 240.24 557.57
  A 1.97 1.96 72.6 0 0 241.53 555.09
  Q 239.08 547.37 238.27 544.49
  C 234.17 529.86 236.29 515.34 245.41 503.34
  Q 255.82 489.66 272.76 486.07
  Q 279.98 484.54 281.00 484.29
  C 283.17 483.75 283.12 482.40 282.56 480.49
  C 279.64 470.49 277.79 463.22 280.89 453.67
  C 283.59 445.36 290.24 440.58 298.26 438.28
  Q 313.26 433.97 327.50 431.59
  Z"
/>
<path fill="#fa9cac" d="
  M 1447.79 432.76
  A 0.20 0.20 0.0 0 1 1447.97 432.44
  Q 1465.61 434.77 1480.87 440.05
  C 1494.26 444.69 1499.66 457.27 1496.65 470.68
  Q 1495.50 475.78 1493.24 481.86
  A 1.67 1.67 0.0 0 0 1494.35 484.04
  C 1500.21 485.72 1507.67 486.55 1512.68 488.86
  Q 1526.44 495.20 1533.84 506.72
  C 1540.86 517.62 1542.35 534.19 1538.23 546.25
  Q 1535.29 554.86 1535.13 555.16
  A 1.13 1.13 0.0 0 0 1535.28 556.38
  Q 1536.31 557.60 1537.70 558.12
  C 1545.44 561.01 1550.24 562.70 1556.18 566.28
  Q 1574.48 577.28 1577.13 598.33
  C 1578.68 610.67 1575.06 621.46 1569.67 631.44
  Q 1567.83 634.85 1571.09 636.18
  C 1584.91 641.79 1596.37 646.94 1602.03 661.71
  C 1606.89 674.36 1605.92 688.48 1600.53 700.79
  Q 1597.40 707.92 1596.96 708.94
  A 1.47 1.46 -65.0 0 0 1597.65 710.84
  C 1605.44 714.66 1611.33 718.21 1615.42 726.32
  C 1619.34 734.11 1616.92 741.30 1613.37 748.62
  Q 1609.64 756.34 1603.91 766.20
  A 0.56 0.56 0.0 0 1 1602.88 766.03
  Q 1602.58 764.55 1602.36 763.87
  Q 1591.76 731.42 1583.54 707.32
  C 1581.64 701.77 1579.02 695.70 1577.04 690.29
  Q 1564.48 655.88 1560.38 645.93
  Q 1551.40 624.16 1541.01 600.35
  Q 1533.60 583.38 1528.43 572.93
  Q 1518.28 552.42 1515.27 545.80
  Q 1512.00 538.61 1506.81 529.05
  C 1502.80 521.65 1499.55 514.78 1494.88 507.06
  Q 1492.34 502.87 1481.04 483.44
  C 1473.13 469.85 1468.18 462.60 1458.32 447.14
  Q 1453.39 439.41 1447.79 432.76
  Z"
/>
<path fill="#365ab0" d="
  M 274.78 438.67
  A 0.51 0.51 0.0 0 1 275.28 439.50
  C 267.23 448.86 265.33 462.02 267.95 473.73
  A 0.67 0.66 76.5 0 1 267.47 474.52
  C 252.28 478.43 239.69 487.64 231.68 501.12
  Q 218.77 522.84 226.49 548.66
  A 0.67 0.66 -18.0 0 1 226.07 549.47
  C 192.89 560.79 177.91 596.18 192.00 628.18
  A 0.84 0.84 0.0 0 1 191.56 629.29
  C 180.47 633.96 170.67 641.22 164.96 652.20
  C 156.17 669.10 156.68 686.48 164.08 704.06
  A 1.34 1.32 -31.1 0 1 163.69 705.60
  C 159.31 709.17 155.16 712.50 152.29 717.03
  Q 150.28 720.20 147.77 725.60
  A 0.66 0.65 43.4 0 1 146.60 725.63
  C 128.61 692.56 113.30 657.50 100.67 623.82
  Q 84.15 579.78 74.15 535.07
  Q 71.83 524.71 70.66 514.80
  C 69.96 508.78 71.35 505.35 76.65 501.88
  C 92.22 491.66 110.61 484.57 130.20 477.97
  Q 160.32 467.83 174.69 463.68
  Q 224.23 449.38 274.78 438.67
  Z"
/>
<path fill="#365ab0" d="
  M 1628.37 724.45
  A 0.35 0.35 0.0 0 1 1627.79 724.37
  Q 1622.84 713.67 1613.61 706.06
  A 2.01 2.01 0.0 0 1 1613.02 703.77
  Q 1622.28 680.25 1613.61 656.66
  C 1608.87 643.77 1598.16 634.45 1585.50 629.34
  A 0.75 0.74 -67.8 0 1 1585.09 628.36
  C 1598.35 596.43 1584.46 561.98 1551.66 550.02
  A 1.15 1.14 -72.3 0 1 1550.95 548.63
  C 1560.16 515.62 1542.67 483.75 1509.25 474.79
  A 1.06 1.05 13.6 0 1 1508.49 473.55
  C 1510.82 462.87 1509.32 452.02 1503.43 443.08
  Q 1502.04 440.98 1501.14 439.33
  A 0.32 0.32 0.0 0 1 1501.50 438.86
  C 1546.11 449.13 1589.86 460.04 1632.77 474.01
  Q 1651.79 480.20 1670.78 487.98
  Q 1684.79 493.72 1692.56 497.93
  C 1697.80 500.76 1702.24 503.94 1703.31 509.99
  Q 1703.74 512.45 1702.84 518.02
  Q 1698.74 543.47 1691.65 568.40
  Q 1680.71 606.85 1666.31 642.85
  Q 1652.94 676.31 1630.83 720.56
  Q 1629.55 723.12 1628.37 724.45
  Z"
/>
<path fill="#fffffe" d="
  M 1773.00 492.25
  L 1773.00 493.38
  Q 1772.83 493.35 1772.77 493.05
  Q 1772.82 492.58 1773.00 492.25
  Z"
/>
<path fill="#b56c4a" d="
  M 1772.76 506.31
  Q 1772.82 506.70 1773.00 506.91
  L 1773.00 541.80
  L 1722.93 541.91
  A 0.69 0.68 6.4 0 1 1722.26 541.08
  Q 1726.28 523.80 1727.08 506.04
  A 0.43 0.43 0.0 0 1 1727.51 505.62
  Q 1750.99 505.74 1771.41 505.64
  Q 1771.78 505.64 1772.76 506.31
  Z"
/>
<path fill="#fffffe" d="
  M 1773.00 505.50
  L 1773.00 506.91
  Q 1772.82 506.70 1772.76 506.31
  Q 1772.82 505.81 1773.00 505.50
  Z"
/>
<path fill="#b56c4a" d="
  M 1772.77 554.36
  Q 1772.76 555.12 1773.00 555.25
  L 1773.00 579.55
  L 1714.00 579.61
  A 0.63 0.63 0.0 0 1 1713.39 578.83
  L 1719.29 554.93
  A 0.93 0.93 0.0 0 1 1720.19 554.22
  L 1772.77 554.36
  Z"
/>
<path fill="#fffffe" d="
  M 1773.00 554.42
  L 1773.00 555.25
  Q 1772.76 555.12 1772.77 554.36
  Q 1772.88 554.39 1773.00 554.42
  Z"
/>
<path fill="#fce3ba" d="
  M 1773.00 591.46
  L 1773.00 851.45
  L 1627.68 851.46
  A 1.01 1.00 81.4 0 1 1626.72 850.75
  Q 1619.49 828.32 1614.31 806.45
  C 1613.45 802.83 1614.14 800.62 1616.25 797.17
  Q 1624.70 783.33 1626.40 780.17
  Q 1642.12 751.07 1661.93 711.20
  Q 1674.05 686.80 1689.27 649.45
  Q 1696.09 632.71 1699.68 621.92
  Q 1705.85 603.43 1708.95 593.98
  C 1709.90 591.09 1711.12 591.48 1714.09 591.50
  Q 1743.55 591.63 1773.00 591.46
  Z"
/>
<path fill="#fec7a3" d="
  M 643.38 706.99
  C 647.26 723.79 649.51 733.52 653.60 748.79
  Q 656.19 758.47 660.65 769.02
  Q 663.02 774.61 672.39 798.11
  Q 673.19 800.12 673.71 801.76
  A 0.58 0.58 0.0 0 1 673.02 802.50
  Q 643.84 795.14 614.30 794.76
  A 0.75 0.75 0.0 0 1 613.57 793.85
  Q 618.02 772.48 625.77 750.21
  Q 628.31 742.93 631.10 736.52
  Q 631.53 735.54 635.95 722.65
  Q 638.61 714.90 642.81 706.92
  A 0.31 0.31 0.0 0 1 643.38 706.99
  Z"
/>
<path fill="#fffffe" d="
  M 0.28 748.45
  Q 0.39 749.23 0.00 749.79
  L 0.00 748.29
  Q 0.17 748.33 0.28 748.45
  Z"
/>
<path fill="#fcc751" d="
  M 0.34 783.96
  Q 0.28 783.07 0.00 782.50
  L 0.00 749.79
  Q 0.39 749.23 0.28 748.45
  L 129.36 748.19
  A 1.67 1.66 76.1 0 1 130.86 749.10
  Q 139.32 765.65 149.91 782.76
  A 0.91 0.91 0.0 0 1 149.14 784.15
  L 0.34 783.96
  Z"
/>
<path fill="#fec7a3" d="
  M 997.92 753.29
  Q 999.53 755.46 1001.10 757.71
  Q 1011.65 772.83 1020.02 784.92
  C 1027.30 795.45 1034.71 804.79 1042.16 814.28
  A 0.96 0.95 -40.4 0 1 1042.05 815.57
  Q 1040.02 817.44 1039.96 817.48
  Q 1032.25 822.60 1022.54 830.76
  Q 1019.63 833.20 1019.08 836.29
  C 1017.57 844.80 1027.79 842.25 1031.96 840.70
  C 1036.90 838.86 1043.74 835.39 1049.18 833.80
  Q 1054.88 832.14 1057.64 831.36
  A 0.98 0.98 0.0 0 1 1058.65 831.66
  Q 1066.90 841.13 1077.71 851.63
  C 1092.37 865.87 1106.06 878.20 1121.48 889.00
  Q 1133.80 897.63 1143.70 903.83
  A 0.21 0.21 0.0 0 1 1143.59 904.22
  Q 1134.94 904.44 1126.22 906.21
  Q 1086.03 914.36 1055.62 941.31
  A 0.37 0.37 0.0 0 1 1055.02 941.14
  Q 1053.58 936.31 1051.72 932.27
  Q 1031.43 888.15 1026.57 875.45
  C 1023.69 867.93 1020.13 857.99 1018.07 849.90
  C 1015.77 840.84 1012.75 831.59 1010.70 823.08
  Q 1003.12 791.59 998.28 760.20
  Q 998.00 758.39 997.66 753.38
  A 0.14 0.14 0.0 0 1 997.92 753.29
  Z"
/>
<path fill="#fec7a3" d="
  M 1150.95 777.61
  L 1159.47 792.37
  A 0.33 0.33 0.0 0 1 1159.14 792.87
  L 1153.71 792.10
  A 0.33 0.33 0.0 0 1 1153.43 791.85
  L 1150.34 777.85
  A 0.33 0.33 0.0 0 1 1150.95 777.61
  Z"
/>
<path fill="#fffffe" d="
  M 0.34 783.96
  Q 0.22 784.29 0.00 784.51
  L 0.00 782.50
  Q 0.28 783.07 0.34 783.96
  Z"
/>
<path fill="#fffffe" d="
  M 0.34 797.47
  Q 0.39 798.35 0.00 798.62
  L 0.00 796.76
  Q 0.30 796.94 0.34 797.47
  Z"
/>
<path fill="#82cbee" d="
  M 0.32 1124.79
  Q 0.24 1123.58 0.00 1123.75
  L 0.00 798.62
  Q 0.39 798.35 0.34 797.47
  L 0.82 797.12
  A 0.97 0.96 26.0 0 1 1.41 796.92
  Q 124.97 796.92 140.25 796.91
  Q 148.52 796.90 156.75 797.06
  Q 159.28 797.11 159.89 799.13
  C 161.45 804.33 159.54 811.92 158.24 817.50
  Q 151.81 845.09 146.32 862.82
  C 141.23 879.22 138.36 890.59 133.47 905.71
  C 128.18 922.04 121.56 946.68 115.46 965.49
  C 96.85 1022.90 81.78 1070.50 63.48 1124.70
  A 0.70 0.69 -80.7 0 1 62.82 1125.18
  Q 27.77 1125.12 1.00 1125.20
  Q 0.57 1125.20 0.32 1124.79
  Z"
/>
<path fill="#fec7a3" d="
  M 1250.45 926.37
  A 0.37 0.37 0.0 0 1 1249.90 926.71
  C 1232.85 916.77 1213.86 909.60 1194.29 905.30
  A 1.96 1.95 -16.4 0 1 1193.31 904.77
  Q 1192.46 903.91 1191.41 901.73
  C 1183.73 885.68 1177.30 867.88 1172.02 854.16
  C 1167.56 842.58 1163.72 828.54 1160.32 817.11
  A 0.63 0.62 83.1 0 1 1160.95 816.30
  Q 1169.95 816.81 1178.25 818.66
  Q 1180.10 819.07 1181.39 820.61
  Q 1200.55 843.29 1221.83 864.46
  C 1228.64 871.24 1235.00 876.59 1243.00 882.76
  Q 1244.81 884.16 1245.49 886.25
  Q 1247.07 891.10 1247.90 897.79
  Q 1249.82 913.30 1250.45 926.37
  Z"
/>
<path fill="#fec7a3" d="
  M 1042.87 1046.38
  Q 1039.58 1063.97 1037.89 1077.04
  Q 1035.53 1095.24 1034.99 1110.00
  Q 1033.66 1146.55 1041.47 1180.33
  Q 1046.59 1202.44 1056.83 1221.69
  C 1076.79 1259.25 1116.48 1277.85 1157.75 1279.21
  Q 1192.75 1280.37 1226.47 1269.69
  Q 1228.26 1269.12 1229.14 1269.88
  Q 1230.78 1279.32 1239.20 1285.57
  Q 1240.54 1286.56 1242.49 1286.92
  A 1.44 1.43 11.7 0 0 1244.14 1285.84
  Q 1244.66 1283.72 1244.09 1281.43
  Q 1241.89 1272.52 1235.28 1267.24
  Q 1236.39 1266.23 1239.04 1265.03
  Q 1248.67 1260.67 1254.86 1258.26
  Q 1255.01 1259.06 1255.07 1259.16
  C 1258.03 1264.01 1266.51 1275.34 1271.85 1274.75
  A 2.15 2.15 0.0 0 0 1273.75 1272.35
  Q 1273.12 1267.25 1269.29 1263.72
  Q 1264.62 1259.43 1258.31 1256.43
  Q 1269.86 1249.97 1274.09 1246.33
  Q 1281.99 1239.52 1289.82 1232.50
  Q 1292.61 1233.22 1295.51 1231.42
  Q 1295.57 1231.38 1300.22 1227.80
  C 1306.20 1223.18 1310.44 1217.83 1315.14 1211.86
  A 1.66 1.65 29.0 0 1 1317.01 1211.33
  C 1321.67 1213.02 1326.50 1214.74 1331.18 1214.37
  A 2.74 2.73 -83.6 0 0 1333.59 1212.44
  Q 1333.96 1211.24 1332.97 1210.02
  Q 1329.23 1205.46 1323.81 1200.28
  A 0.93 0.93 0.0 0 1 1323.58 1199.29
  L 1331.44 1177.85
  A 1.38 1.37 -72.1 0 1 1333.09 1177.00
  C 1338.67 1178.54 1350.51 1181.62 1354.74 1177.01
  Q 1357.27 1174.25 1353.94 1172.25
  Q 1347.10 1168.15 1337.03 1162.60
  A 1.42 1.40 -71.4 0 1 1336.32 1161.15
  L 1339.75 1138.19
  A 0.42 0.42 0.0 0 1 1339.87 1137.95
  Q 1342.11 1135.92 1344.45 1135.37
  Q 1355.03 1132.88 1362.86 1130.13
  Q 1366.75 1128.77 1368.44 1127.03
  C 1372.29 1123.07 1366.53 1121.16 1363.46 1120.58
  Q 1346.54 1117.38 1340.61 1116.02
  A 1.48 1.48 0.0 0 1 1339.47 1114.67
  Q 1338.67 1102.43 1335.92 1090.62
  A 1.30 1.30 0.0 0 1 1336.56 1089.18
  Q 1344.56 1084.84 1352.43 1079.68
  C 1355.88 1077.42 1360.88 1073.07 1362.40 1068.98
  A 2.26 2.25 21.9 0 0 1361.18 1066.13
  Q 1358.94 1065.16 1356.68 1065.67
  Q 1344.79 1068.35 1333.17 1069.35
  A 1.24 1.23 -10.5 0 1 1331.87 1068.46
  Q 1328.18 1055.61 1322.72 1043.46
  A 0.53 0.52 -25.8 0 1 1322.96 1042.78
  C 1332.73 1037.65 1340.31 1030.57 1343.35 1019.76
  A 0.59 0.59 0.0 0 0 1342.65 1019.03
  L 1335.63 1020.57
  A 1.28 1.27 73.4 0 1 1334.15 1019.76
  Q 1328.51 1004.35 1319.92 991.07
  Q 1305.36 968.55 1285.31 951.02
  A 1.02 1.01 36.5 0 1 1285.11 949.72
  Q 1287.96 945.02 1292.65 937.15
  Q 1302.07 921.34 1306.96 904.03
  A 0.29 0.29 0.0 0 1 1307.50 903.99
  Q 1314.95 920.44 1326.40 940.87
  C 1333.16 952.94 1341.70 965.88 1348.30 975.52
  C 1359.43 991.77 1375.32 1010.42 1386.88 1023.38
  C 1390.78 1027.76 1390.16 1030.85 1389.97 1037.49
  Q 1387.94 1109.36 1377.34 1180.07
  C 1374.68 1197.79 1371.70 1216.91 1366.95 1234.96
  C 1362.30 1252.63 1358.93 1269.32 1353.56 1288.37
  C 1349.61 1302.41 1346.03 1318.06 1339.25 1335.24
  C 1334.29 1347.82 1328.32 1365.08 1322.41 1378.95
  C 1312.48 1402.25 1303.18 1422.13 1291.38 1446.21
  C 1285.77 1457.65 1279.70 1471.34 1274.44 1482.71
  Q 1271.35 1489.39 1268.83 1492.33
  Q 1264.39 1497.47 1260.76 1500.02
  Q 1222.77 1526.69 1184.05 1545.80
  Q 1178.85 1548.36 1158.31 1557.63
  C 1133.32 1568.91 1107.30 1578.24 1081.30 1585.30
  Q 1078.22 1586.14 1055.67 1592.03
  C 1007.45 1604.61 958.05 1612.65 909.01 1615.71
  Q 881.50 1617.42 847.00 1614.03
  Q 795.54 1608.98 744.00 1597.53
  C 728.63 1594.11 714.51 1590.15 694.75 1584.96
  Q 679.75 1581.02 659.76 1574.24
  C 634.48 1565.67 610.71 1554.88 586.22 1543.04
  Q 576.74 1538.45 567.46 1533.12
  C 553.52 1525.13 539.46 1516.98 527.12 1508.40
  Q 524.84 1506.82 523.70 1504.55
  Q 513.67 1484.53 505.85 1467.96
  C 499.63 1454.79 491.54 1439.66 486.22 1429.88
  C 476.91 1412.78 470.41 1398.27 460.94 1378.56
  C 454.61 1365.37 447.51 1349.19 441.79 1332.78
  Q 430.17 1299.48 428.82 1294.67
  C 421.79 1269.71 415.51 1246.40 410.60 1220.94
  Q 402.23 1177.55 397.16 1137.91
  C 392.99 1105.31 390.87 1072.22 389.62 1041.95
  Q 389.13 1029.97 389.69 1024.54
  Q 389.95 1022.08 392.69 1018.71
  Q 423.17 981.26 437.09 961.60
  Q 440.48 956.82 457.46 930.22
  C 471.70 907.92 482.27 886.73 493.62 862.43
  C 494.94 859.61 497.32 855.44 499.13 852.64
  Q 501.02 849.73 504.33 847.84
  Q 511.05 843.98 519.62 839.56
  A 0.91 0.91 0.0 0 1 520.87 839.99
  C 532.62 865.62 549.12 888.86 570.44 907.83
  A 0.41 0.40 -30.0 0 1 570.25 908.52
  Q 559.66 910.76 549.45 914.70
  C 514.74 928.12 484.51 950.15 461.92 979.66
  Q 452.46 992.01 445.91 1004.51
  C 443.51 1009.10 441.75 1014.03 439.75 1019.41
  A 0.99 0.99 0.0 0 1 438.67 1020.05
  L 430.59 1018.92
  A 0.40 0.40 0.0 0 0 430.16 1019.44
  C 432.87 1027.48 436.61 1033.73 443.41 1038.39
  Q 449.63 1042.66 450.08 1043.02
  A 1.56 1.56 0.0 0 1 450.52 1044.92
  Q 445.20 1056.11 441.98 1068.17
  A 1.42 1.42 0.0 0 1 440.52 1069.22
  Q 429.41 1068.50 416.25 1065.79
  Q 413.27 1065.17 411.40 1066.69
  A 2.14 1.86 55.3 0 0 411.11 1069.33
  C 416.97 1078.86 427.43 1084.16 436.85 1089.25
  A 1.04 1.03 18.1 0 1 437.38 1090.29
  L 434.09 1113.78
  A 2.68 2.67 -5.7 0 1 432.33 1115.92
  C 424.13 1118.80 413.95 1119.49 407.28 1121.47
  C 405.73 1121.93 404.13 1123.67 404.95 1125.53
  C 406.70 1129.49 414.00 1131.58 418.21 1132.53
  Q 425.50 1134.17 431.22 1135.96
  C 433.35 1136.63 434.18 1137.96 434.46 1140.22
  Q 435.39 1147.70 437.72 1160.70
  A 1.72 1.71 70.8 0 1 436.84 1162.53
  Q 427.98 1167.31 420.60 1171.59
  C 416.12 1174.18 418.98 1178.34 422.63 1178.75
  Q 431.66 1179.78 440.70 1176.65
  A 0.97 0.97 0.0 0 1 441.95 1177.29
  Q 445.13 1187.83 450.18 1197.38
  A 1.90 1.90 0.0 0 1 449.96 1199.49
  C 447.33 1202.64 443.41 1205.68 440.71 1209.43
  Q 438.37 1212.67 442.05 1214.30
  C 445.27 1215.72 452.13 1213.31 456.46 1211.92
  A 2.49 2.48 -29.6 0 1 459.07 1212.63
  C 464.70 1218.91 471.95 1227.82 480.16 1232.61
  Q 481.61 1233.45 483.08 1232.26
  Q 491.49 1240.79 500.87 1247.91
  Q 503.33 1249.78 507.78 1252.33
  Q 511.32 1254.36 514.74 1256.67
  Q 511.34 1258.51 505.28 1263.30
  Q 500.57 1267.02 500.07 1273.07
  A 1.54 1.54 0.0 0 0 501.66 1274.73
  C 503.95 1274.64 506.00 1273.56 507.63 1272.09
  Q 514.04 1266.30 519.15 1258.64
  Q 529.09 1261.95 538.40 1266.90
  Q 532.00 1272.78 529.61 1280.95
  Q 529.01 1282.98 529.41 1285.15
  A 1.76 1.74 -7.4 0 0 531.28 1286.58
  Q 533.30 1286.40 535.05 1284.80
  Q 542.20 1278.24 544.75 1269.14
  Q 568.97 1276.88 596.50 1278.90
  Q 620.88 1280.68 643.23 1275.61
  C 653.71 1273.23 665.35 1268.51 674.11 1263.82
  Q 700.58 1249.64 715.12 1222.65
  Q 722.23 1209.46 725.66 1198.68
  C 736.78 1163.76 739.58 1125.91 735.85 1088.75
  Q 734.58 1076.09 733.93 1070.28
  Q 733.53 1066.64 732.09 1057.80
  Q 731.08 1051.64 730.52 1045.26
  Q 733.73 1048.93 737.30 1050.60
  A 1.53 1.52 16.1 0 0 739.46 1049.41
  Q 739.71 1047.43 739.26 1044.49
  Q 735.74 1021.60 726.80 1003.69
  Q 720.38 990.84 707.39 976.85
  Q 695.95 964.53 679.40 953.84
  C 665.86 945.10 652.20 939.86 636.94 936.00
  Q 616.58 930.85 594.97 932.94
  C 574.28 934.95 553.12 940.62 535.04 950.28
  Q 505.67 965.98 483.49 990.93
  A 1.26 1.25 -55.8 0 1 482.00 991.22
  L 470.49 985.47
  A 0.70 0.70 0.0 0 1 470.20 984.48
  Q 471.34 982.56 473.36 980.36
  C 485.35 967.25 498.34 956.46 512.38 946.53
  Q 521.85 939.83 537.23 932.50
  Q 558.34 922.42 581.49 917.78
  A 1.42 1.39 -32.5 0 1 582.58 918.01
  C 587.08 921.23 596.47 928.18 601.81 923.35
  C 603.77 921.57 603.63 917.03 603.78 914.93
  A 1.38 1.37 1.1 0 1 605.12 913.65
  Q 638.45 913.01 669.77 924.67
  C 688.30 931.56 704.53 941.61 719.27 954.76
  Q 725.85 960.63 734.12 968.63
  Q 735.22 969.69 737.16 970.85
  A 1.31 1.30 29.2 0 0 739.00 970.33
  C 741.78 964.83 722.39 945.03 718.50 941.67
  Q 701.89 927.30 686.24 918.97
  Q 671.47 911.12 649.99 906.50
  Q 627.56 901.68 603.82 902.11
  A 0.66 0.65 -1.3 0 1 603.15 901.48
  Q 602.13 876.42 603.95 850.51
  C 604.71 839.62 605.42 829.55 608.62 819.57
  A 2.12 2.12 0.0 0 1 610.49 818.11
  Q 635.30 816.42 660.51 821.26
  Q 667.99 822.69 684.75 827.22
  Q 689.40 828.48 691.63 831.94
  Q 696.01 838.73 700.26 845.30
  C 709.13 859.00 719.49 871.60 731.11 883.28
  C 739.60 891.80 746.41 898.60 754.77 905.01
  C 757.58 907.16 761.47 909.80 765.01 908.15
  A 1.20 1.20 0.0 0 0 765.67 907.33
  C 766.73 902.82 764.87 897.04 763.28 892.45
  Q 759.36 881.09 758.47 878.08
  Q 755.46 867.96 753.59 864.39
  A 0.23 0.23 0.0 0 1 753.92 864.09
  Q 754.74 864.61 755.31 865.46
  Q 761.79 874.93 765.88 880.62
  C 776.43 895.27 788.62 908.22 802.07 921.02
  C 816.09 934.36 832.68 946.22 849.32 955.64
  Q 856.71 959.82 870.78 965.69
  Q 890.87 974.06 913.86 977.38
  C 920.82 978.39 932.73 978.68 926.34 967.15
  C 918.94 953.78 911.90 942.51 905.67 929.15
  C 896.76 910.07 889.15 893.44 884.46 875.11
  A 0.20 0.20 0.0 0 1 884.79 874.91
  Q 897.46 886.47 898.15 887.09
  Q 919.28 906.17 941.91 919.82
  Q 949.74 924.54 964.26 930.96
  Q 977.98 937.02 987.64 939.67
  Q 1008.22 945.31 1030.50 947.27
  Q 1038.95 948.02 1047.62 947.00
  A 0.53 0.52 -72.6 0 1 1048.07 947.87
  Q 1041.61 955.29 1037.07 962.32
  Q 1034.86 965.74 1034.22 968.75
  Q 1034.08 969.43 1034.17 969.64
  A 1.34 1.33 -26.0 0 0 1036.02 970.27
  C 1042.37 966.85 1046.70 961.94 1052.94 956.19
  Q 1070.90 939.62 1091.43 929.96
  Q 1106.56 922.84 1126.55 918.02
  C 1138.02 915.26 1148.94 914.47 1160.00 915.35
  Q 1163.83 915.65 1168.67 917.66
  Q 1181.33 922.93 1189.09 924.73
  A 4.50 4.16 26.2 0 0 1193.38 923.45
  Q 1194.51 922.16 1195.21 919.73
  A 0.69 0.68 13.1 0 1 1195.99 919.25
  C 1215.06 922.76 1233.08 930.17 1249.98 939.65
  A 1.59 1.58 -76.2 0 1 1250.79 941.00
  L 1251.06 957.51
  A 0.15 0.15 0.0 0 1 1250.83 957.65
  C 1230.73 944.94 1209.69 937.59 1185.35 933.72
  C 1163.06 930.17 1141.37 933.58 1120.16 941.02
  C 1099.47 948.28 1080.20 961.85 1065.54 977.84
  C 1046.86 998.21 1036.45 1021.43 1034.31 1048.57
  A 1.58 1.57 2.2 0 0 1035.89 1050.27
  Q 1039.15 1050.27 1042.87 1046.38
  Z
  M 877.55 1270.11
  C 877.59 1278.03 878.63 1286.54 884.45 1292.29
  A 2.61 2.61 0.0 0 0 887.95 1292.44
  C 893.65 1287.69 892.96 1278.26 892.92 1270.04
  C 892.88 1261.81 893.48 1252.37 887.73 1247.68
  A 2.61 2.61 0.0 0 0 884.23 1247.86
  C 878.47 1253.67 877.51 1262.19 877.55 1270.11
  Z
  M 1081.31 1391.64
  C 1079.93 1388.43 1075.28 1389.97 1073.02 1391.31
  C 1060.37 1398.79 1052.14 1403.78 1039.86 1408.60
  Q 1013.12 1419.09 987.07 1424.07
  Q 949.07 1431.35 908.77 1433.41
  Q 880.98 1434.83 853.38 1432.35
  Q 814.61 1428.88 783.23 1422.27
  Q 759.81 1417.34 731.30 1405.72
  C 723.97 1402.73 715.04 1397.65 707.78 1394.48
  C 703.94 1392.81 700.17 1392.06 697.49 1395.61
  C 694.87 1399.08 702.62 1405.57 704.99 1407.16
  C 724.69 1420.37 747.13 1426.99 770.68 1433.54
  Q 785.37 1437.62 804.60 1440.84
  Q 846.48 1447.86 888.75 1447.65
  Q 912.49 1447.53 927.00 1446.46
  Q 956.72 1444.26 988.02 1438.29
  Q 1003.88 1435.26 1027.91 1427.22
  C 1044.05 1421.80 1056.83 1416.58 1069.39 1408.39
  Q 1076.10 1404.01 1079.83 1399.87
  Q 1083.22 1396.09 1081.31 1391.64
  Z"
/>
<path fill="#b56c4a" d="
  M 1772.77 864.29
  Q 1772.69 864.80 1773.00 865.00
  L 1773.00 896.24
  L 1641.04 896.35
  A 2.09 2.08 -7.9 0 1 1639.03 894.84
  L 1630.44 864.61
  A 0.51 0.51 0.0 0 1 1630.93 863.96
  L 1772.77 864.29
  Z"
/>
<path fill="#fec7a3" d="
  M 1773.00 864.00
  L 1773.00 865.00
  Q 1772.69 864.80 1772.77 864.29
  Q 1772.84 864.10 1773.00 864.00
  Z"
/>
<path fill="#b56c4a" d="
  M 1773.00 908.61
  L 1773.00 958.74
  Q 1756.76 958.99 1740.50 958.94
  Q 1732.63 958.92 1732.63 967.00
  Q 1732.64 1076.31 1732.64 1144.25
  Q 1732.65 1170.36 1732.87 1188.13
  A 0.51 0.51 0.0 0 1 1731.88 1188.29
  L 1643.42 909.10
  A 0.45 0.45 0.0 0 1 1643.85 908.52
  L 1773.00 908.61
  Z"
/>
<path fill="#fec7a3" d="
  M 1269.62 969.04
  L 1276.64 959.73
  A 1.14 1.14 0.0 0 1 1278.36 959.61
  L 1302.75 984.00
  A 1.14 1.14 0.0 0 1 1302.39 985.86
  L 1290.90 990.70
  A 1.14 1.14 0.0 0 1 1289.65 990.46
  L 1269.72 970.53
  A 1.14 1.14 0.0 0 1 1269.62 969.04
  Z"
/>
<path fill="#fffffe" d="
  M 730.52 1045.26
  Q 731.08 1051.64 732.09 1057.80
  Q 733.53 1066.64 733.93 1070.28
  Q 734.58 1076.09 735.85 1088.75
  C 739.58 1125.91 736.78 1163.76 725.66 1198.68
  Q 722.23 1209.46 715.12 1222.65
  Q 700.58 1249.64 674.11 1263.82
  C 665.35 1268.51 653.71 1273.23 643.23 1275.61
  Q 620.88 1280.68 596.50 1278.90
  Q 568.97 1276.88 544.75 1269.14
  L 538.40 1266.90
  Q 529.09 1261.95 519.15 1258.64
  L 514.74 1256.67
  Q 511.32 1254.36 507.78 1252.33
  Q 503.33 1249.78 500.87 1247.91
  Q 491.49 1240.79 483.08 1232.26
  Q 484.54 1230.66 483.23 1228.03
  Q 477.15 1215.89 472.81 1201.65
  Q 468.40 1187.19 466.77 1179.74
  Q 457.95 1139.38 467.38 1099.57
  C 470.10 1088.10 473.55 1074.86 477.75 1064.53
  Q 488.89 1037.18 507.87 1014.86
  C 519.17 1001.57 532.49 991.35 548.13 982.87
  C 573.57 969.09 603.58 963.21 632.02 968.57
  Q 661.67 974.16 686.09 993.33
  Q 701.04 1005.07 713.68 1021.07
  Q 723.11 1033.00 730.52 1045.26
  Z
  M 593.56 1018.34
  C 608.71 1027.47 608.25 1044.29 604.05 1059.56
  Q 602.27 1066.02 597.87 1071.47
  C 591.00 1079.97 585.29 1085.50 575.37 1088.63
  Q 561.36 1093.05 551.42 1082.83
  Q 549.81 1081.17 548.16 1079.49
  Q 541.37 1065.10 544.48 1049.60
  A 0.49 0.48 -24.7 0 0 543.58 1049.27
  Q 534.32 1065.52 530.68 1083.21
  Q 523.78 1116.74 528.74 1151.07
  Q 530.52 1163.39 533.96 1173.99
  C 539.61 1191.43 548.04 1209.23 559.72 1222.07
  Q 568.19 1231.38 581.92 1239.56
  C 590.85 1244.88 600.73 1247.58 611.26 1248.46
  Q 637.51 1250.64 658.60 1235.66
  Q 675.65 1223.56 685.43 1207.17
  Q 693.96 1192.86 698.03 1179.51
  C 706.27 1152.49 707.65 1121.66 703.64 1092.47
  Q 701.56 1077.36 697.97 1066.04
  C 686.55 1030.10 656.82 993.06 614.98 994.98
  C 594.04 995.94 575.09 1005.70 561.89 1022.19
  A 0.41 0.41 0.0 0 0 562.45 1022.77
  Q 576.46 1012.51 593.56 1018.34
  Z"
/>
<path fill="#fffffe" d="
  M 1289.82 1232.50
  Q 1281.99 1239.52 1274.09 1246.33
  Q 1269.86 1249.97 1258.31 1256.43
  L 1254.86 1258.26
  Q 1248.67 1260.67 1239.04 1265.03
  Q 1236.39 1266.23 1235.28 1267.24
  Q 1231.69 1267.70 1229.14 1269.88
  Q 1228.26 1269.12 1226.47 1269.69
  Q 1192.75 1280.37 1157.75 1279.21
  C 1116.48 1277.85 1076.79 1259.25 1056.83 1221.69
  Q 1046.59 1202.44 1041.47 1180.33
  Q 1033.66 1146.55 1034.99 1110.00
  Q 1035.53 1095.24 1037.89 1077.04
  Q 1039.58 1063.97 1042.87 1046.38
  Q 1052.45 1028.47 1067.11 1012.12
  C 1083.35 994.01 1103.09 980.11 1126.19 972.42
  Q 1153.81 963.23 1183.49 968.43
  Q 1209.73 973.03 1233.34 987.64
  Q 1248.28 996.88 1258.12 1007.16
  Q 1285.17 1035.42 1298.13 1072.16
  C 1310.69 1107.72 1315.62 1147.68 1305.62 1185.42
  Q 1299.89 1207.02 1289.95 1229.45
  Q 1289.58 1230.28 1289.82 1232.50
  Z
  M 1132.24 1018.80
  C 1149.62 1030.28 1147.35 1052.28 1138.02 1068.05
  C 1133.28 1076.06 1126.11 1083.58 1117.95 1086.97
  Q 1099.45 1094.67 1086.48 1078.73
  Q 1080.08 1065.80 1081.98 1050.67
  A 0.38 0.38 0.0 0 0 1081.25 1050.49
  C 1077.87 1059.61 1074.18 1067.29 1072.05 1076.96
  Q 1062.49 1120.23 1071.24 1163.71
  Q 1076.59 1190.29 1091.44 1211.95
  C 1103.68 1229.81 1121.43 1244.03 1143.19 1247.57
  C 1162.04 1250.63 1180.28 1247.37 1196.23 1236.64
  Q 1205.26 1230.57 1211.57 1224.10
  Q 1221.57 1213.85 1229.37 1198.13
  C 1245.27 1166.06 1249.19 1130.88 1244.36 1095.33
  Q 1241.20 1072.05 1231.13 1049.88
  C 1215.01 1014.37 1180.20 986.55 1139.14 997.17
  C 1125.06 1000.81 1110.33 1009.66 1101.30 1021.72
  A 0.27 0.27 0.0 0 0 1101.66 1022.12
  C 1103.89 1020.76 1106.25 1019.22 1108.46 1018.36
  Q 1120.35 1013.72 1132.24 1018.80
  Z"
/>
<path fill="#b56c4a" d="
  M 1772.75 971.56
  Q 1772.74 972.03 1773.00 972.25
  L 1773.00 1322.42
  L 1772.80 1327.81
  Q 1771.84 1327.07 1771.72 1326.52
  Q 1768.52 1312.82 1765.65 1302.61
  Q 1754.15 1261.80 1746.72 1235.79
  Q 1745.56 1231.73 1745.46 1224.76
  Q 1745.27 1212.05 1745.28 1204.00
  Q 1745.36 1079.67 1745.14 971.70
  A 0.48 0.47 90.0 0 1 1745.61 971.22
  Q 1758.26 971.15 1770.73 971.11
  Q 1771.47 971.11 1772.75 971.56
  Z"
/>
<path fill="#fec7a3" d="
  M 1773.00 971.00
  L 1773.00 972.25
  Q 1772.74 972.03 1772.75 971.56
  Q 1772.83 971.18 1773.00 971.00
  Z"
/>
<path fill="#fec7a3" d="
  M 1328.48 1023.18
  L 1316.38 1028.28
  A 0.34 0.34 0.0 0 1 1315.97 1028.15
  L 1300.10 1003.64
  A 0.34 0.34 0.0 0 1 1300.14 1003.23
  L 1309.19 993.42
  A 0.34 0.34 0.0 0 1 1309.73 993.47
  L 1328.63 1022.68
  A 0.34 0.34 0.0 0 1 1328.48 1023.18
  Z"
/>
<path fill="#fec7a3" d="
  M 457.24 1028.13
  L 445.08 1022.86
  A 0.33 0.33 0.0 0 1 444.93 1022.38
  L 463.27 993.86
  A 0.33 0.33 0.0 0 1 463.77 993.80
  L 473.54 1002.80
  A 0.33 0.33 0.0 0 1 473.59 1003.22
  L 457.65 1028.00
  A 0.33 0.33 0.0 0 1 457.24 1028.13
  Z"
/>
<path fill="#246439" d="
  M 678.13 1192.78
  Q 675.33 1180.46 669.44 1174.07
  Q 665.27 1169.55 660.02 1166.91
  A 0.98 0.98 0.0 0 0 658.67 1167.42
  C 655.76 1174.66 652.79 1180.98 647.28 1185.99
  Q 643.43 1189.49 636.64 1193.05
  C 625.65 1198.83 611.45 1199.01 600.80 1192.97
  C 591.11 1187.48 583.13 1179.41 579.46 1168.63
  A 1.26 1.26 0.0 0 0 577.57 1167.99
  Q 562.71 1177.96 559.68 1195.48
  Q 559.51 1196.49 558.67 1196.64
  Q 544.06 1171.49 541.55 1141.00
  C 539.85 1120.43 540.67 1101.52 545.86 1081.41
  Q 546.39 1079.39 548.16 1079.49
  Q 549.81 1081.17 551.42 1082.83
  Q 561.36 1093.05 575.37 1088.63
  C 585.29 1085.50 591.00 1079.97 597.87 1071.47
  Q 602.27 1066.02 604.05 1059.56
  C 608.25 1044.29 608.71 1027.47 593.56 1018.34
  Q 594.24 1015.35 597.22 1013.72
  C 609.99 1006.71 625.93 1007.12 638.85 1013.65
  Q 648.04 1018.30 655.25 1023.95
  C 666.28 1032.59 673.97 1044.70 679.68 1057.60
  Q 684.04 1067.47 685.82 1074.43
  Q 692.58 1100.90 692.56 1124.76
  Q 692.55 1137.76 690.36 1153.63
  Q 687.59 1173.73 678.13 1192.78
  Z
  M 586.78 1102.05
  C 583.04 1121.64 583.16 1140.41 590.88 1158.79
  C 596.75 1172.79 610.04 1185.13 626.25 1179.66
  C 640.37 1174.90 648.41 1158.11 651.03 1144.49
  Q 655.99 1118.77 647.59 1093.12
  Q 643.96 1082.03 636.13 1074.26
  Q 632.76 1070.92 626.41 1068.61
  C 612.46 1063.55 600.39 1074.50 593.31 1085.03
  Q 588.73 1091.83 586.78 1102.05
  Z"
/>
<path fill="#246439" d="
  M 1214.94 1196.29
  Q 1212.29 1184.40 1206.03 1176.00
  Q 1201.67 1170.16 1195.00 1166.81
  A 0.84 0.84 0.0 0 0 1193.84 1167.25
  C 1190.14 1176.62 1186.68 1183.16 1178.18 1189.13
  Q 1154.32 1205.90 1130.61 1189.25
  Q 1119.21 1181.26 1115.70 1168.06
  A 1.39 1.39 0.0 0 0 1113.71 1167.19
  Q 1097.87 1175.54 1096.88 1196.01
  Q 1089.08 1182.62 1085.97 1168.99
  Q 1077.84 1133.51 1082.61 1095.81
  Q 1083.86 1085.91 1086.48 1078.73
  Q 1099.45 1094.67 1117.95 1086.97
  C 1126.11 1083.58 1133.28 1076.06 1138.02 1068.05
  C 1147.35 1052.28 1149.62 1030.28 1132.24 1018.80
  Q 1132.94 1019.01 1133.14 1017.18
  A 1.42 1.40 -18.1 0 1 1133.60 1016.29
  C 1141.41 1009.18 1153.10 1007.47 1163.17 1009.09
  Q 1174.29 1010.87 1184.15 1017.13
  Q 1192.96 1022.72 1199.16 1028.36
  C 1203.98 1032.75 1209.64 1039.88 1213.41 1046.35
  Q 1219.51 1056.82 1223.32 1068.19
  C 1234.86 1102.60 1235.04 1142.19 1224.39 1175.61
  Q 1221.71 1184.03 1214.94 1196.29
  Z
  M 1137.77 1075.29
  Q 1122.42 1091.10 1120.62 1113.33
  Q 1120.05 1120.26 1120.02 1125.49
  Q 1119.94 1139.40 1124.32 1152.66
  C 1129.16 1167.32 1142.06 1184.31 1159.66 1180.23
  Q 1164.58 1179.09 1169.59 1175.46
  Q 1180.64 1167.44 1184.77 1153.87
  C 1191.27 1132.48 1191.54 1106.63 1181.58 1086.18
  C 1173.45 1069.47 1161.28 1062.82 1143.11 1071.09
  Q 1140.85 1072.12 1137.77 1075.29
  Z"
/>
<path fill="#fa9cac" d="
  M 217.28 1772.51
  L 215.49 1773.00
  L 171.57 1773.00
  L 170.26 1772.72
  Q 169.47 1771.99 168.76 1771.25
  Q 146.57 1748.21 130.12 1722.58
  Q 120.61 1707.77 109.71 1687.33
  Q 100.19 1669.50 92.64 1650.36
  C 89.60 1642.65 86.36 1632.69 83.78 1625.51
  Q 80.80 1617.19 77.87 1606.63
  C 64.18 1557.20 55.55 1506.35 55.77 1455.52
  A 0.75 0.75 0.0 0 0 54.43 1455.06
  Q 53.75 1455.94 53.46 1456.72
  Q 47.00 1473.73 42.96 1495.24
  Q 39.17 1515.48 35.35 1543.26
  Q 29.30 1587.32 30.29 1634.01
  Q 31.42 1687.48 39.13 1737.22
  Q 39.63 1740.46 40.64 1745.19
  A 0.32 0.32 0.0 0 1 40.06 1745.42
  Q 33.76 1734.86 29.06 1724.21
  C 19.71 1703.03 12.17 1681.34 6.98 1658.55
  Q 4.43 1647.34 1.89 1632.26
  Q 1.07 1627.42 0.51 1622.47
  L 0.00 1616.31
  L 0.00 1481.74
  L 0.62 1475.96
  Q 1.04 1465.34 2.95 1454.89
  A 0.04 0.04 0.0 0 1 3.02 1454.89
  Q 3.05 1455.00 3.12 1455.13
  C 3.19 1454.79 3.10 1454.44 3.13 1454.26
  Q 8.36 1419.79 15.50 1389.01
  Q 31.15 1321.61 47.09 1269.78
  Q 66.86 1205.47 73.87 1183.83
  Q 96.20 1114.91 99.86 1103.38
  Q 108.93 1074.77 118.06 1047.66
  A 0.06 0.06 0.0 0 1 118.18 1047.68
  Q 118.28 1049.07 118.14 1049.97
  C 114.92 1069.60 113.09 1086.61 109.99 1105.96
  Q 108.30 1116.58 106.33 1135.02
  Q 99.48 1199.32 96.51 1245.80
  Q 95.21 1266.07 94.22 1298.55
  Q 91.58 1385.26 104.52 1473.75
  Q 109.17 1505.59 112.70 1520.82
  Q 116.03 1535.21 122.20 1559.86
  C 136.61 1617.42 158.12 1672.62 187.27 1724.48
  Q 201.77 1750.27 216.52 1770.98
  Q 216.99 1771.63 217.28 1772.51
  Z"
/>
<path fill="#fa9cac" d="
  M 1772.52 1477.79
  L 1773.00 1488.34
  L 1773.00 1609.76
  L 1772.52 1618.52
  C 1771.97 1621.84 1771.80 1625.60 1771.37 1628.48
  Q 1767.35 1655.01 1760.50 1680.78
  C 1754.90 1701.86 1747.24 1720.55 1738.04 1739.35
  A 0.34 0.34 0.0 0 1 1737.41 1739.13
  C 1744.35 1707.35 1748.72 1675.46 1749.46 1642.75
  Q 1750.16 1612.03 1744.73 1585.31
  C 1742.11 1572.45 1737.96 1559.35 1734.21 1545.55
  Q 1733.45 1542.75 1733.39 1541.26
  Q 1732.30 1509.89 1729.18 1489.06
  Q 1728.29 1483.11 1725.48 1474.36
  C 1724.15 1470.21 1723.37 1467.34 1718.59 1468.73
  A 0.41 0.40 79.8 0 0 1718.30 1469.16
  C 1721.63 1501.56 1721.15 1534.56 1717.78 1567.07
  Q 1717.10 1573.70 1715.07 1590.93
  Q 1713.19 1606.93 1711.63 1614.69
  C 1705.88 1643.27 1698.16 1673.13 1686.66 1700.95
  Q 1675.53 1727.84 1663.19 1750.19
  Q 1658.24 1759.15 1649.36 1773.00
  L 1606.26 1773.00
  Q 1605.47 1772.67 1604.47 1772.67
  Q 1604.33 1772.17 1604.49 1771.77
  C 1612.50 1752.03 1618.91 1732.58 1624.63 1712.45
  Q 1627.06 1703.92 1631.26 1693.54
  Q 1640.10 1671.72 1645.60 1657.15
  C 1655.31 1631.46 1663.74 1604.92 1670.37 1577.52
  Q 1678.98 1541.92 1683.30 1513.03
  C 1686.52 1491.46 1689.88 1464.63 1691.64 1439.89
  Q 1696.77 1367.72 1691.79 1298.25
  Q 1683.37 1180.75 1663.12 1062.89
  L 1663.13 1062.89
  Q 1665.52 1069.31 1667.26 1074.99
  Q 1676.74 1105.91 1684.49 1129.18
  C 1696.34 1164.71 1708.63 1207.86 1718.64 1239.43
  Q 1725.05 1259.64 1729.57 1276.14
  C 1736.95 1303.10 1742.40 1320.94 1748.15 1344.27
  Q 1750.78 1354.95 1755.98 1375.66
  Q 1761.40 1397.26 1765.52 1423.97
  Q 1766.78 1432.13 1768.40 1441.85
  Q 1770.88 1456.78 1771.09 1459.76
  Q 1771.73 1468.69 1772.52 1477.79
  Z"
/>
<path fill="#12412b" d="
  M 593.31 1085.03
  C 600.39 1074.50 612.46 1063.55 626.41 1068.61
  Q 632.76 1070.92 636.13 1074.26
  Q 643.96 1082.03 647.59 1093.12
  Q 655.99 1118.77 651.03 1144.49
  C 648.41 1158.11 640.37 1174.90 626.25 1179.66
  C 610.04 1185.13 596.75 1172.79 590.88 1158.79
  C 583.16 1140.41 583.04 1121.64 586.78 1102.05
  Q 588.73 1091.83 593.31 1085.03
  Z"
/>
<path fill="#12412b" d="
  M 1137.77 1075.29
  Q 1140.85 1072.12 1143.11 1071.09
  C 1161.28 1062.82 1173.45 1069.47 1181.58 1086.18
  C 1191.54 1106.63 1191.27 1132.48 1184.77 1153.87
  Q 1180.64 1167.44 1169.59 1175.46
  Q 1164.58 1179.09 1159.66 1180.23
  C 1142.06 1184.31 1129.16 1167.32 1124.32 1152.66
  Q 1119.94 1139.40 1120.02 1125.49
  Q 1120.05 1120.26 1120.62 1113.33
  Q 1122.42 1091.10 1137.77 1075.29
  Z"
/>
<path fill="#fa9cac" d="
  M 1456.29 1772.70
  Q 1455.07 1772.50 1454.52 1773.00
  L 1199.38 1773.00
  Q 1198.70 1772.68 1197.72 1772.68
  Q 1197.64 1772.20 1197.72 1771.78
  Q 1199.57 1762.60 1200.75 1757.27
  Q 1201.93 1751.95 1206.53 1741.28
  C 1212.23 1728.08 1219.10 1713.29 1228.43 1699.18
  Q 1249.74 1666.97 1277.85 1637.84
  Q 1308.87 1605.71 1342.40 1576.91
  Q 1371.73 1551.72 1391.71 1533.96
  Q 1400.99 1525.71 1429.25 1499.00
  Q 1457.51 1472.29 1483.82 1442.81
  Q 1540.55 1379.24 1579.39 1305.66
  Q 1591.14 1283.42 1604.58 1251.94
  C 1614.38 1229.02 1622.04 1204.82 1629.47 1180.48
  C 1632.80 1169.59 1634.50 1158.09 1637.24 1146.24
  Q 1642.51 1123.47 1646.24 1101.84
  A 0.30 0.30 0.0 0 1 1646.83 1101.84
  Q 1651.06 1129.12 1655.47 1159.04
  Q 1659.56 1186.86 1662.90 1216.43
  Q 1666.51 1248.39 1669.75 1302.50
  Q 1672.50 1348.47 1671.72 1390.50
  Q 1671.56 1399.47 1669.89 1411.93
  Q 1666.42 1437.77 1657.46 1464.48
  C 1647.95 1492.83 1641.85 1510.68 1630.83 1535.14
  Q 1598.03 1607.92 1549.33 1672.15
  C 1528.23 1699.98 1504.48 1726.04 1478.50 1751.75
  Q 1466.10 1764.03 1456.29 1772.70
  Z"
/>
<path fill="#fa9cac" d="
  M 588.66 1773.00
  L 353.75 1773.00
  Q 353.02 1772.67 352.14 1772.87
  Q 292.93 1720.96 248.45 1658.06
  Q 223.26 1622.43 202.16 1583.63
  Q 175.43 1534.46 156.09 1486.20
  C 149.59 1469.99 142.01 1449.37 135.93 1429.44
  C 128.76 1406.00 122.51 1386.06 118.40 1364.35
  Q 116.78 1355.82 116.63 1347.75
  Q 116.07 1317.33 117.24 1276.97
  Q 118.02 1249.84 121.48 1206.32
  Q 125.31 1158.29 129.00 1120.48
  A 0.23 0.23 0.0 0 1 129.45 1120.47
  Q 138.34 1177.32 156.21 1232.59
  C 168.78 1271.48 187.00 1308.96 207.14 1344.14
  Q 209.49 1348.24 220.81 1365.90
  Q 229.30 1379.14 237.99 1390.69
  Q 271.49 1435.17 310.02 1472.47
  Q 354.16 1515.21 405.80 1551.94
  Q 410.36 1555.18 458.20 1588.80
  Q 503.06 1620.33 538.36 1662.88
  C 546.45 1672.63 554.41 1685.50 562.29 1697.80
  Q 567.72 1706.28 570.84 1712.53
  C 575.76 1722.38 580.19 1731.44 582.71 1742.06
  Q 584.85 1751.07 588.66 1773.00
  Z"
/>
<path fill="#fffffe" d="
  M 0.32 1124.79
  Q 0.26 1125.17 0.00 1125.36
  L 0.00 1123.75
  Q 0.24 1123.58 0.32 1124.79
  Z"
/>
<path fill="#fffffe" d="
  M 0.27 1137.43
  Q 0.30 1138.31 0.00 1138.63
  L 0.00 1137.35
  L 0.27 1137.43
  Z"
/>
<path fill="#fcc751" d="
  M 0.27 1178.55
  Q 0.46 1177.53 0.00 1177.00
  L 0.00 1138.63
  Q 0.30 1138.31 0.27 1137.43
  L 58.31 1137.17
  A 1.02 1.01 9.4 0 1 59.28 1138.51
  L 46.16 1177.30
  A 1.76 1.75 -80.7 0 1 44.50 1178.50
  L 0.27 1178.55
  Z"
/>
<path fill="#4e9a52" d="
  M 1214.94 1196.29
  Q 1201.16 1222.10 1174.69 1231.98
  Q 1164.19 1235.90 1150.88 1234.68
  Q 1126.00 1232.41 1109.69 1215.31
  Q 1101.77 1207.01 1096.88 1196.01
  Q 1097.87 1175.54 1113.71 1167.19
  A 1.39 1.39 0.0 0 1 1115.70 1168.06
  Q 1119.21 1181.26 1130.61 1189.25
  Q 1154.32 1205.90 1178.18 1189.13
  C 1186.68 1183.16 1190.14 1176.62 1193.84 1167.25
  A 0.84 0.84 0.0 0 1 1195.00 1166.81
  Q 1201.67 1170.16 1206.03 1176.00
  Q 1212.29 1184.40 1214.94 1196.29
  Z"
/>
<path fill="#4e9a52" d="
  M 678.13 1192.78
  Q 673.24 1206.73 661.15 1217.90
  Q 643.81 1233.95 620.00 1235.10
  Q 607.88 1235.69 596.65 1231.19
  Q 571.93 1221.30 558.67 1196.64
  Q 559.51 1196.49 559.68 1195.48
  Q 562.71 1177.96 577.57 1167.99
  A 1.26 1.26 0.0 0 1 579.46 1168.63
  C 583.13 1179.41 591.11 1187.48 600.80 1192.97
  C 611.45 1199.01 625.65 1198.83 636.64 1193.05
  Q 643.43 1189.49 647.28 1185.99
  C 652.79 1180.98 655.76 1174.66 658.67 1167.42
  A 0.98 0.98 0.0 0 1 660.02 1166.91
  Q 665.27 1169.55 669.44 1174.07
  Q 675.33 1180.46 678.13 1192.78
  Z"
/>
<path fill="#fffffe" d="
  M 0.27 1178.55
  Q 0.13 1178.58 0.00 1178.61
  L 0.00 1177.00
  Q 0.46 1177.53 0.27 1178.55
  Z"
/>
<path fill="#fffffe" d="
  M 0.29 1191.47
  Q 0.34 1192.26 0.00 1192.86
  L 0.00 1190.87
  Q 0.22 1191.02 0.29 1191.47
  Z"
/>
<path fill="#fcc751" d="
  M 0.35 1245.56
  Q 0.30 1244.53 0.00 1244.57
  L 0.00 1192.86
  Q 0.34 1192.26 0.29 1191.47
  L 0.87 1191.12
  A 1.26 1.26 0.0 0 1 1.52 1190.94
  L 40.22 1190.94
  A 0.98 0.97 -81.6 0 1 41.15 1192.20
  L 25.01 1244.80
  A 1.60 1.59 -81.3 0 1 23.49 1245.92
  Q 9.84 1245.92 1.25 1245.92
  Q 0.65 1245.92 0.35 1245.56
  Z"
/>
<path fill="#fffffe" d="
  M 0.35 1245.56
  Q 0.22 1245.73 0.00 1245.86
  L 0.00 1244.57
  Q 0.30 1244.53 0.35 1245.56
  Z"
/>
<path fill="#fce3ba" d="
  M 0.00 1333.63
  L 0.00 1258.29
  L 20.57 1258.27
  A 0.61 0.61 0.0 0 1 21.15 1259.07
  C 13.44 1282.14 9.83 1296.30 1.05 1329.02
  Q 0.45 1331.28 0.00 1333.63
  Z"
/>
<path fill="#fec7a3" d="
  M 1773.00 1322.42
  L 1773.00 1329.21
  Q 1772.54 1329.09 1772.80 1327.81
  L 1773.00 1322.42
  Z"
/>
<path fill="#ee667c" d="
  M 331.04 1772.69
  Q 330.86 1772.81 330.75 1773.00
  L 247.88 1773.00
  Q 247.36 1772.73 246.43 1772.77
  Q 223.74 1743.41 204.34 1708.18
  Q 170.44 1646.60 150.56 1577.91
  Q 144.08 1555.54 140.18 1539.67
  Q 126.06 1482.29 120.81 1425.76
  A 0.21 0.21 0.0 0 1 121.23 1425.68
  Q 130.59 1457.49 142.84 1488.24
  Q 164.22 1541.93 193.03 1594.98
  C 205.00 1617.02 218.16 1637.44 232.37 1658.50
  Q 248.78 1682.81 275.01 1714.00
  Q 300.82 1744.69 330.35 1771.66
  Q 330.84 1772.10 331.04 1772.69
  Z"
/>
<path fill="#fffffe" d="
  M 0.62 1475.96
  L 0.00 1481.74
  L 0.00 1467.16
  L 0.62 1475.96
  Z"
/>
<path fill="#fffffe" d="
  M 1773.00 1468.16
  L 1773.00 1488.34
  L 1772.52 1477.79
  L 1773.00 1468.16
  Z"
/>
<path fill="#ee667c" d="
  M 1559.02 1772.74
  Q 1557.81 1772.64 1557.77 1773.00
  L 1477.37 1773.00
  L 1476.20 1772.78
  Q 1476.01 1772.19 1476.36 1771.87
  Q 1485.48 1763.47 1489.46 1759.47
  Q 1507.16 1741.70 1521.46 1726.23
  C 1557.33 1687.44 1587.58 1644.06 1613.97 1597.47
  C 1633.92 1562.23 1650.26 1524.75 1663.78 1487.26
  A 0.26 0.25 58.5 0 1 1664.27 1487.38
  C 1659.38 1529.80 1649.30 1573.05 1635.70 1616.73
  C 1627.89 1641.84 1618.13 1664.92 1606.68 1690.19
  Q 1588.50 1730.31 1559.02 1772.74
  Z"
/>
<path fill="#ee667c" d="
  M 1250.38 1533.22
  A 0.38 0.37 -3.2 0 1 1250.92 1533.70
  Q 1231.51 1573.00 1216.56 1613.28
  Q 1211.63 1626.58 1207.14 1639.14
  C 1202.95 1650.88 1199.54 1662.66 1196.29 1673.52
  Q 1184.47 1713.04 1178.00 1754.01
  A 0.84 0.83 13.6 0 1 1176.91 1754.67
  Q 1168.39 1751.83 1161.47 1748.55
  C 1160.04 1747.87 1158.65 1746.51 1158.02 1744.98
  Q 1141.72 1705.60 1134.14 1676.87
  Q 1123.73 1637.37 1120.74 1596.92
  A 1.07 1.06 -12.3 0 1 1121.44 1595.84
  Q 1152.31 1584.51 1182.50 1570.88
  C 1206.55 1560.03 1229.34 1546.71 1250.38 1533.22
  Z"
/>
<path fill="#ee667c" d="
  M 542.07 1544.44
  A 0.25 0.25 0.0 0 1 542.45 1544.17
  C 545.44 1546.05 548.93 1548.45 552.26 1550.13
  Q 566.10 1557.13 575.52 1562.17
  C 588.13 1568.91 597.95 1572.80 614.18 1579.87
  Q 639.21 1590.76 664.32 1599.06
  A 1.26 1.25 11.5 0 1 665.18 1600.35
  C 664.46 1609.34 663.53 1622.19 661.86 1633.16
  Q 656.87 1665.98 647.43 1696.22
  Q 639.32 1722.21 629.79 1744.71
  A 2.46 2.44 1.6 0 1 628.35 1746.06
  L 608.72 1753.05
  A 0.58 0.57 -14.3 0 1 607.96 1752.60
  Q 604.08 1728.89 599.44 1710.02
  Q 594.14 1688.45 582.70 1650.78
  Q 580.28 1642.82 574.65 1626.72
  Q 567.54 1606.38 566.21 1602.80
  Q 559.85 1585.62 544.74 1551.21
  Q 544.46 1550.58 543.49 1548.59
  Q 542.50 1546.56 542.07 1544.44
  Z"
/>
<path fill="#ee667c" d="
  M 1109.09 1600.79
  C 1109.31 1603.45 1109.19 1605.74 1109.54 1609.25
  Q 1113.26 1646.29 1122.87 1683.14
  C 1128.36 1704.19 1135.91 1724.49 1144.12 1744.33
  A 0.42 0.42 0.0 0 1 1143.66 1744.91
  C 1134.90 1743.50 1129.93 1744.09 1122.85 1749.86
  A 1.01 1.00 -52.4 0 1 1121.81 1750.00
  Q 1105.83 1742.72 1091.64 1732.87
  C 1081.18 1725.59 1073.24 1717.45 1068.73 1705.48
  Q 1063.57 1691.79 1063.27 1678.50
  Q 1063.04 1668.66 1064.22 1651.75
  Q 1065.29 1636.37 1067.85 1612.81
  A 1.13 1.12 85.8 0 1 1068.66 1611.86
  L 1108.65 1600.49
  A 0.35 0.35 0.0 0 1 1109.09 1600.79
  Z"
/>
<path fill="#ee667c" d="
  M 677.17 1603.59
  A 0.35 0.34 -80.4 0 1 677.60 1603.28
  L 706.53 1611.15
  A 1.71 1.70 4.8 0 1 707.78 1612.62
  C 709.93 1632.82 712.00 1651.50 712.36 1671.46
  Q 712.64 1686.47 710.04 1696.32
  Q 704.18 1718.49 685.27 1731.98
  Q 673.29 1740.54 663.35 1745.82
  Q 658.41 1748.45 653.15 1749.89
  A 1.49 1.49 0.0 0 1 651.75 1749.56
  Q 648.41 1746.58 644.07 1744.82
  A 0.56 0.56 0.0 0 1 643.76 1744.08
  Q 656.53 1712.87 665.01 1679.99
  C 671.37 1655.31 675.29 1629.50 677.17 1603.59
  Z"
/>
<path fill="#fffffe" d="
  M 1773.00 1609.76
  L 1773.00 1625.97
  L 1772.52 1618.52
  L 1773.00 1609.76
  Z"
/>
<path fill="#fffffe" d="
  M 0.51 1622.47
  L 0.00 1628.60
  L 0.00 1616.31
  L 0.51 1622.47
  Z"
/>
<path fill="#fec7a3" d="
  M 1117.84 1772.46
  L 1114.12 1773.00
  L 662.83 1773.00
  L 657.61 1772.67
  Q 668.51 1766.96 679.16 1761.15
  Q 696.08 1751.91 709.70 1738.96
  C 726.16 1723.32 733.40 1703.33 733.53 1680.74
  C 733.62 1665.83 732.84 1656.67 731.69 1639.10
  A 0.35 0.35 0.0 0 1 732.18 1638.75
  C 779.93 1658.85 826.94 1674.07 875.27 1677.82
  Q 898.98 1679.66 929.75 1674.65
  C 969.65 1668.15 1007.05 1654.91 1043.34 1638.23
  A 0.46 0.46 0.0 0 1 1043.99 1638.68
  C 1042.71 1654.63 1041.25 1669.49 1042.03 1684.72
  C 1043.11 1705.88 1050.89 1724.66 1065.83 1739.28
  C 1075.76 1748.99 1087.11 1756.46 1099.41 1762.81
  Q 1108.51 1767.52 1117.84 1772.46
  Z"
/>
<path fill="#b56c4a" d="
  M 131.54 1772.72
  Q 131.42 1772.82 131.37 1773.00
  L 80.05 1773.00
  Q 75.59 1754.45 72.28 1731.00
  Q 68.00 1700.70 66.46 1677.37
  Q 65.77 1666.96 66.03 1661.80
  A 0.50 0.50 0.0 0 1 67.00 1661.64
  Q 67.03 1661.71 71.74 1672.30
  C 76.46 1682.93 79.48 1688.43 87.08 1703.57
  Q 93.09 1715.57 98.06 1723.99
  Q 112.92 1749.12 131.51 1771.73
  Q 131.81 1772.09 131.54 1772.72
  Z"
/>
<path fill="#b56c4a" d="
  M 1700.91 1772.69
  Q 1700.30 1772.66 1700.00 1773.00
  L 1683.36 1773.00
  L 1682.24 1772.67
  Q 1682.07 1772.05 1682.33 1771.60
  Q 1697.53 1745.45 1708.99 1717.80
  A 0.41 0.40 -31.7 0 1 1709.77 1717.98
  Q 1707.60 1744.09 1701.25 1771.40
  Q 1701.09 1772.10 1700.91 1772.69
  Z"
/>
<path fill="#fffffe" d="
  M 0.17 1729.04
  L 0.00 1732.13
  L 0.00 1728.37
  Q 0.26 1728.57 0.17 1729.04
  Z"
/>
<path fill="#b56c4a" d="
  M 23.53 1772.70
  Q 23.21 1772.81 23.08 1773.00
  L 0.00 1773.00
  L 0.00 1732.13
  L 0.17 1729.04
  Q 1.04 1729.01 1.22 1729.48
  Q 9.51 1751.39 23.53 1771.22
  Q 23.99 1771.88 23.53 1772.70
  Z"
/>
<path fill="#fffffe" d="
  M 1773.00 1731.77
  L 1773.00 1736.72
  L 1772.85 1733.46
  Q 1772.68 1732.37 1773.00 1731.77
  Z"
/>
<path fill="#b56c4a" d="
  M 1772.85 1733.46
  L 1773.00 1736.72
  L 1773.00 1773.00
  L 1757.75 1773.00
  Q 1757.89 1772.81 1758.13 1772.71
  A 0.31 0.30 -29.3 0 0 1758.26 1772.26
  Q 1758.21 1772.19 1758.07 1772.06
  A 0.67 0.66 19.5 0 1 1757.84 1771.58
  Q 1757.62 1765.58 1758.12 1764.61
  Q 1764.44 1752.19 1770.39 1737.66
  Q 1771.06 1736.03 1771.44 1734.44
  Q 1771.59 1733.83 1771.91 1733.64
  Q 1772.28 1733.43 1772.85 1733.46
  Z"
/>
<path fill="#365ab0" d="
  M 1163.11 1773.00
  L 1146.13 1773.00
  L 1145.05 1772.73
  L 1143.15 1767.18
  A 0.81 0.80 86.1 0 1 1144.06 1766.13
  Q 1149.48 1767.15 1153.99 1768.82
  Q 1158.75 1770.58 1163.11 1773.00
  Z"
/>
<path fill="#365ab0" d="
  M 630.76 1773.00
  L 619.28 1773.00
  Q 619.10 1772.82 618.79 1772.72
  L 618.89 1772.28
  A 1.04 1.02 86.6 0 1 619.55 1771.52
  L 631.76 1767.17
  A 0.49 0.48 -1.0 0 1 632.39 1767.77
  L 630.76 1773.00
  Z"
/>
<path fill="#fffffe" d="
  M 217.28 1772.51
  L 218.51 1773.00
  L 215.49 1773.00
  L 217.28 1772.51
  Z"
/>
<path fill="#fffffe" d="
  M 1117.84 1772.46
  L 1119.34 1773.00
  L 1114.12 1773.00
  L 1117.84 1772.46
  Z"
/>
<path fill="#fffffe" d="
  M 1456.29 1772.70
  L 1457.01 1773.00
  L 1454.52 1773.00
  Q 1455.07 1772.50 1456.29 1772.70
  Z"
/>
<path fill="#fec7a3" d="
  M 23.53 1772.70
  L 24.75 1773.00
  L 23.08 1773.00
  Q 23.21 1772.81 23.53 1772.70
  Z"
/>
<path fill="#fffffe" d="
  M 131.54 1772.72
  L 132.75 1773.00
  L 131.37 1773.00
  Q 131.42 1772.82 131.54 1772.72
  Z"
/>
<path fill="#fffffe" d="
  M 170.26 1772.72
  L 171.57 1773.00
  L 169.37 1773.00
  Q 169.64 1772.79 170.26 1772.72
  Z"
/>
<path fill="#fec7a3" d="
  M 246.43 1772.77
  Q 247.36 1772.73 247.88 1773.00
  L 246.37 1773.00
  Q 246.67 1772.50 246.43 1772.77
  Z"
/>
<path fill="#fffffe" d="
  M 331.04 1772.69
  L 332.26 1773.00
  L 330.75 1773.00
  Q 330.86 1772.81 331.04 1772.69
  Z"
/>
<path fill="#fffffe" d="
  M 352.14 1772.87
  Q 353.02 1772.67 353.75 1773.00
  L 351.37 1773.00
  Q 351.75 1772.62 352.14 1772.87
  Z"
/>
<path fill="#82cbee" d="
  M 618.79 1772.72
  Q 619.10 1772.82 619.28 1773.00
  L 617.74 1773.00
  Q 617.81 1772.74 618.79 1772.72
  Z"
/>
<path fill="#fffffe" d="
  M 657.61 1772.67
  L 662.83 1773.00
  L 656.80 1773.00
  Q 656.71 1772.70 657.61 1772.67
  Z"
/>
<path fill="#82cbee" d="
  M 1146.13 1773.00
  L 1145.01 1773.00
  Q 1145.03 1772.86 1145.05 1772.73
  L 1146.13 1773.00
  Z"
/>
<path fill="#fffffe" d="
  M 1197.72 1772.68
  Q 1198.70 1772.68 1199.38 1773.00
  L 1197.51 1773.00
  Q 1197.58 1772.80 1197.72 1772.68
  Z"
/>
<path fill="#fffffe" d="
  M 1476.20 1772.78
  L 1477.37 1773.00
  L 1475.60 1773.00
  Q 1475.73 1772.77 1476.20 1772.78
  Z"
/>
<path fill="#fec7a3" d="
  M 1559.02 1772.74
  L 1559.75 1773.00
  L 1557.77 1773.00
  Q 1557.81 1772.64 1559.02 1772.74
  Z"
/>
<path fill="#fffffe" d="
  M 1604.47 1772.67
  Q 1605.47 1772.67 1606.26 1773.00
  L 1603.87 1773.00
  Q 1604.04 1772.77 1604.47 1772.67
  Z"
/>
<path fill="#fec7a3" d="
  M 1682.24 1772.67
  L 1683.36 1773.00
  L 1681.83 1773.00
  Q 1681.93 1772.80 1682.24 1772.67
  Z"
/>
<path fill="#ee667c" d="
  M 1700.91 1772.69
  Q 1701.23 1772.80 1701.37 1773.00
  L 1700.00 1773.00
  Q 1700.30 1772.66 1700.91 1772.69
  Z"
/>
</svg>
